<svg width="11" height="11" viewBox="0 0 11 11" fill="none" xmlns="http://www.w3.org/2000/svg">
<g clip-path="url(#clip0_1_235)">
<path d="M10.6658 4.31697C10.2521 3.63942 9.73016 3.03421 9.1208 2.52534L10.4041 1.242C10.4876 1.15556 10.5338 1.03979 10.5328 0.919612C10.5317 0.799438 10.4835 0.684482 10.3986 0.599503C10.3136 0.514525 10.1986 0.466322 10.0784 0.465278C9.95827 0.464234 9.84249 0.510431 9.75605 0.59392L8.36042 1.99138C7.49527 1.47751 6.5062 1.20968 5.49996 1.2168C2.66242 1.2168 1.04541 3.15922 0.33408 4.31697C0.114321 4.67241 -0.00208345 5.08204 -0.00208345 5.49993C-0.00208345 5.91782 0.114321 6.32745 0.33408 6.68289C0.747843 7.36043 1.26976 7.96565 1.87912 8.47451L0.595788 9.75785C0.552013 9.80013 0.517096 9.8507 0.493075 9.90662C0.469054 9.96254 0.456411 10.0227 0.455882 10.0835C0.455353 10.1444 0.466949 10.2048 0.489995 10.2611C0.51304 10.3174 0.547073 10.3686 0.590107 10.4116C0.633142 10.4546 0.684315 10.4887 0.740643 10.5117C0.79697 10.5348 0.857324 10.5464 0.918181 10.5458C0.979038 10.5453 1.03918 10.5327 1.0951 10.5086C1.15102 10.4846 1.20159 10.4497 1.24387 10.4059L2.64271 9.0071C3.50679 9.52089 4.49468 9.78918 5.49996 9.78306C8.33751 9.78306 9.95451 7.84064 10.6658 6.68289C10.8856 6.32745 11.002 5.91782 11.002 5.49993C11.002 5.08204 10.8856 4.67241 10.6658 4.31697ZM1.11508 6.20301C0.984518 5.99174 0.915362 5.74829 0.915362 5.49993C0.915362 5.25157 0.984518 5.00811 1.11508 4.79684C1.7265 3.80409 3.10838 2.13346 5.49996 2.13346C6.26092 2.1292 7.0112 2.3126 7.68438 2.66742L6.76176 3.59005C6.32172 3.29791 5.79417 3.16701 5.26861 3.21955C4.74305 3.2721 4.25186 3.50486 3.87838 3.87834C3.5049 4.25182 3.27214 4.74301 3.21959 5.26857C3.16704 5.79413 3.29794 6.32169 3.59008 6.76172L2.53133 7.82047C1.96992 7.36659 1.49084 6.81945 1.11508 6.20301ZM6.87496 5.49993C6.87496 5.8646 6.7301 6.21434 6.47223 6.4722C6.21437 6.73006 5.86463 6.87493 5.49996 6.87493C5.29578 6.87414 5.09443 6.82713 4.911 6.73743L6.73746 4.91097C6.82716 5.09439 6.87417 5.29575 6.87496 5.49993ZM4.12496 5.49993C4.12496 5.13525 4.26983 4.78552 4.52769 4.52765C4.78555 4.26979 5.13529 4.12492 5.49996 4.12492C5.70414 4.12572 5.9055 4.17272 6.08892 4.26243L4.26246 6.08889C4.17276 5.90546 4.12575 5.70411 4.12496 5.49993ZM9.88484 6.20301C9.27342 7.19576 7.89155 8.86639 5.49996 8.86639C4.739 8.87065 3.98873 8.68726 3.31554 8.33243L4.23817 7.4098C4.6782 7.70195 5.20575 7.83285 5.73131 7.7803C6.25687 7.72775 6.74807 7.49499 7.12155 7.12151C7.49503 6.74803 7.72779 6.25684 7.78033 5.73128C7.83288 5.20572 7.70198 4.67816 7.40984 4.23813L8.46859 3.17938C9.03 3.63326 9.50908 4.18041 9.88484 4.79684C10.0154 5.00811 10.0846 5.25157 10.0846 5.49993C10.0846 5.74829 10.0154 5.99174 9.88484 6.20301Z" fill="#E1E1E1"/>
</g>
<defs>
<clipPath id="clip0_1_235">
<rect width="10.3119" height="10.3119" fill="white" transform="scale(1.06673)"/>
</clipPath>
</defs>
</svg>
