<svg width="20" height="21" viewBox="0 0 20 21" fill="none" xmlns="http://www.w3.org/2000/svg">
<mask id="mask0_10_295" style="mask-type:luminance" maskUnits="userSpaceOnUse" x="0" y="0" width="20" height="21">
<path d="M20 0H0V20.3811H20V0Z" fill="white"/>
</mask>
<g mask="url(#mask0_10_295)">
<path fill-rule="evenodd" clip-rule="evenodd" d="M9.99998 0C4.48085 0 0 4.56624 0 10.1906C0 15.8149 4.48085 20.3811 9.99998 20.3811C15.5191 20.3811 20 15.8149 20 10.1906C20 4.56624 15.5191 0 9.99998 0ZM14.2968 11.4246C14.618 11.4246 14.926 11.2946 15.1531 11.0631C15.3802 10.8317 15.5078 10.5178 15.5078 10.1906C15.5078 9.50902 14.9656 8.95654 14.2968 8.95654C12.1779 8.95654 7.82202 8.95654 5.70311 8.95654C5.38194 8.95654 5.07394 9.08655 4.84687 9.31799C4.61976 9.54938 4.49218 9.86326 4.49218 10.1906C4.49218 10.8721 5.03433 11.4246 5.70311 11.4246H14.2968Z" fill="#E14040"/>
</g>
</svg>
