<svg width="28" height="28" viewBox="0 0 28 28" fill="none" xmlns="http://www.w3.org/2000/svg">
<g clip-path="url(#clip0_1_97)">
<path d="M22.6684 15.1434C22.7151 14.7701 22.7501 14.3967 22.7501 14.0001C22.7501 13.6034 22.7151 13.2301 22.6684 12.8567L25.1301 10.9317C25.3517 10.7567 25.4101 10.4417 25.2701 10.1851L22.9367 6.14839C22.7967 5.89172 22.4817 5.79839 22.2251 5.89172L19.3201 7.05839C18.7134 6.59172 18.0601 6.20672 17.3484 5.91505L16.9051 2.82339C16.8701 2.54339 16.6251 2.33339 16.3334 2.33339H11.6667C11.3751 2.33339 11.1301 2.54339 11.0951 2.82339L10.6517 5.91505C9.94007 6.20672 9.28674 6.60339 8.68007 7.05839L5.77507 5.89172C5.50674 5.78672 5.2034 5.89172 5.0634 6.14839L2.73007 10.1851C2.5784 10.4417 2.6484 10.7567 2.87007 10.9317L5.33174 12.8567C5.28507 13.2301 5.25007 13.6151 5.25007 14.0001C5.25007 14.3851 5.28507 14.7701 5.33174 15.1434L2.87007 17.0684C2.6484 17.2434 2.59007 17.5584 2.73007 17.8151L5.0634 21.8517C5.2034 22.1084 5.5184 22.2017 5.77507 22.1084L8.68007 20.9417C9.28674 21.4084 9.94007 21.7934 10.6517 22.0851L11.0951 25.1767C11.1301 25.4567 11.3751 25.6667 11.6667 25.6667H16.3334C16.6251 25.6667 16.8701 25.4567 16.9051 25.1767L17.3484 22.0851C18.0601 21.7934 18.7134 21.3967 19.3201 20.9417L22.2251 22.1084C22.4934 22.2134 22.7967 22.1084 22.9367 21.8517L25.2701 17.8151C25.4101 17.5584 25.3517 17.2434 25.1301 17.0684L22.6684 15.1434ZM14.0001 18.0834C11.7484 18.0834 9.91674 16.2517 9.91674 14.0001C9.91674 11.7484 11.7484 9.91672 14.0001 9.91672C16.2517 9.91672 18.0834 11.7484 18.0834 14.0001C18.0834 16.2517 16.2517 18.0834 14.0001 18.0834Z" fill="white"/>
</g>
<defs>
<clipPath id="clip0_1_97">
<rect width="27.5399" height="27.5399" fill="white" transform="scale(1.01671)"/>
</clipPath>
</defs>
</svg>
