<svg width="29" height="29" viewBox="0 0 29 29" fill="none" xmlns="http://www.w3.org/2000/svg">
<g clip-path="url(#clip0_3_499)">
<path d="M14.4999 11.745C17.5029 11.745 19.9374 9.31055 19.9374 6.3075C19.9374 3.30446 17.5029 0.870005 14.4999 0.870005C11.4968 0.870005 9.06237 3.30446 9.06237 6.3075C9.06237 9.31055 11.4968 11.745 14.4999 11.745Z" fill="#89375F"/>
<path d="M27.9667 24.3238C27.4027 21.7557 26.1094 19.4051 24.242 17.5541C23.7888 17.0993 23.2977 16.6839 22.7739 16.3125C20.3887 14.5234 17.4814 13.5681 14.4998 13.5938C10.8541 13.5751 7.34891 14.9987 4.7486 17.5541C2.88127 19.4051 1.58794 21.7557 1.02391 24.3238C0.925872 24.7779 0.931168 25.2482 1.03941 25.7C1.14764 26.1517 1.35605 26.5734 1.64922 26.9338C1.95284 27.3019 2.33517 27.5972 2.76805 27.7979C3.20093 27.9987 3.67334 28.0998 4.15047 28.0938H24.8492C25.3277 28.0941 25.8002 27.9867 26.2316 27.7796C26.663 27.5725 27.0423 27.2711 27.3414 26.8975C27.6293 26.5413 27.8347 26.1258 27.9428 25.6808C28.051 25.2358 28.0591 24.7723 27.9667 24.3238Z" fill="#89375F"/>
</g>
<defs>
<clipPath id="clip0_3_499">
<rect width="28.907" height="28.907" fill="white" transform="scale(1.00322)"/>
</clipPath>
</defs>
</svg>
