<svg width="33" height="33" viewBox="0 0 33 33" fill="none" xmlns="http://www.w3.org/2000/svg">
<path d="M27.5687 15.125H5.4312C4.70978 15.125 4.12495 15.7099 4.12495 16.4313V16.5688C4.12495 17.2902 4.70978 17.875 5.4312 17.875H27.5687C28.2901 17.875 28.8749 17.2902 28.8749 16.5688V16.4313C28.8749 15.7099 28.2901 15.125 27.5687 15.125Z" fill="white"/>
<path d="M27.5687 22.0001H5.4312C4.70978 22.0001 4.12495 22.5849 4.12495 23.3063V23.4438C4.12495 24.1652 4.70978 24.7501 5.4312 24.7501H27.5687C28.2901 24.7501 28.8749 24.1652 28.8749 23.4438V23.3063C28.8749 22.5849 28.2901 22.0001 27.5687 22.0001Z" fill="white"/>
<path d="M27.5687 8.25003H5.4312C4.70978 8.25003 4.12495 8.83486 4.12495 9.55628V9.69378C4.12495 10.4152 4.70978 11 5.4312 11H27.5687C28.2901 11 28.8749 10.4152 28.8749 9.69378V9.55628C28.8749 8.83486 28.2901 8.25003 27.5687 8.25003Z" fill="white"/>
</svg>
