<svg width="51" height="51" viewBox="0 0 51 51" fill="none" xmlns="http://www.w3.org/2000/svg">
<path d="M6.80331 0C3.05547 0 0 3.05534 0 6.80297C0 10.5506 3.05547 13.5993 6.80331 13.5993C10.5511 13.5993 13.6 10.5506 13.6 6.80297C13.6 3.05534 10.5511 0 6.80331 0ZM7.64843 2.54823V6.45104L9.09941 7.9003C10.0294 8.69677 8.69728 10.0288 7.90078 9.09886L6.19912 7.3973C6.04032 7.23941 5.95024 7.02525 5.94844 6.80133V2.54823C5.94295 2.07817 6.32005 1.6929 6.79014 1.68829C7.26673 1.68367 7.654 2.07167 7.64843 2.54823ZM34 5.0599C33.3187 5.06311 32.9083 5.82051 33.2928 6.38297C34.3394 7.95639 34.6032 9.09362 34.5363 10.0036C34.4695 10.9136 34.0557 11.7044 33.5452 12.5883C33.0346 13.4723 32.4214 14.44 32.2087 15.6761C31.9961 16.9121 32.2216 18.2944 33.2812 19.9922C33.8803 20.9495 35.3175 20.0639 34.7239 19.0958C33.8683 17.7004 33.7423 16.7875 33.8838 15.9649C34.0252 15.1423 34.4912 14.3511 35.0194 13.4366C35.5476 12.5222 36.1313 11.4677 36.2296 10.1298C36.3279 8.79178 35.9093 7.2512 34.7056 5.44173C34.5488 5.19887 34.2891 5.05932 34 5.0599ZM39.2411 6.38298C40.3041 7.98094 40.5515 9.09363 40.4846 10.0036C40.4178 10.9136 40.0091 11.7044 39.4985 12.5883C38.9879 13.4723 38.3697 14.44 38.1571 15.6761C37.9444 16.9121 38.1763 18.303 39.2295 19.9922C39.8099 20.9589 41.2799 20.0732 40.6722 19.0958C39.8372 17.7567 39.6907 16.7875 39.8322 15.9649C39.9735 15.1423 40.4395 14.3511 40.9677 13.4366C41.4959 12.5222 42.0796 11.4677 42.178 10.1298C42.2763 8.79178 41.8641 7.2512 40.6606 5.44173C40.5035 5.19887 40.2441 5.06099 39.955 5.06157C39.2706 5.05987 38.855 5.81801 39.2411 6.38298ZM27.3445 6.38442C28.3865 7.95093 28.6482 9.09507 28.5813 10.0051C28.5145 10.915 28.1074 11.7058 27.5968 12.5898C27.0862 13.4737 26.4664 14.4414 26.2538 15.6775C26.0411 16.9136 26.3036 18.3538 27.3262 19.9937C27.9312 20.9471 29.3766 20.0936 28.7689 19.0972C27.9165 17.6998 27.7874 16.7889 27.9289 15.9664C28.0702 15.1438 28.5428 14.3525 29.0711 13.4381C29.5993 12.5236 30.1829 11.4692 30.2813 10.1312C30.3796 8.79323 29.961 7.25264 28.7573 5.44318C28.6002 5.20032 28.3341 5.06742 28.0451 5.068C27.3637 5.07121 26.9671 5.81714 27.3445 6.38442ZM16.2962 15.2542C16.0585 15.6107 15.8569 15.9628 15.672 16.3083C15.2798 16.211 14.873 16.1522 14.4517 16.1522C11.6452 16.1522 9.35009 18.4472 9.35009 21.2536C9.35009 24.0601 11.6452 26.3467 14.4517 26.3467C17.2583 26.3467 19.5517 24.0601 19.5517 21.2536C19.5517 19.4717 18.626 17.8986 17.2325 16.9856C17.3758 16.725 17.5298 16.4617 17.7073 16.1954C18.8856 14.4281 20.7188 12.7507 23.8001 12.7507C24.9595 12.7771 24.9595 11.0244 23.8001 11.0509C20.0813 11.0509 17.6679 13.1967 16.2962 15.2542ZM22.9534 23.8002V38.2495C22.9534 41.06 25.2377 43.3509 28.0484 43.3509H39.0967C41.9074 43.3509 44.1984 41.06 44.1984 38.2495V37.3995H45.5431C48.0955 37.3995 50.15 35.277 50.15 32.6401V30.2596C50.15 27.6227 48.0955 25.5001 45.5431 25.5001H44.1984V23.8002C44.1965 23.3334 43.8185 22.9555 43.3517 22.9536H23.8001C23.7708 22.9521 23.7414 22.9521 23.7121 22.9536C23.2799 23.0003 22.9526 23.3656 22.9534 23.8002ZM3.40176 24.6502C2.47466 24.6502 1.70176 25.4231 1.70176 26.3501V29.7516C1.70176 30.6786 2.47466 31.4515 3.40176 31.4515H21.2534V24.6502H20.3237C19.1405 26.6736 16.9464 28.0467 14.4517 28.0467C11.9565 28.0467 9.76164 26.6744 8.57812 24.6502H3.40176ZM39.9384 28.8883C40.4156 28.8827 40.8039 29.271 40.7984 29.7482V33.1481C40.7997 34.2838 39.0954 34.2838 39.0967 33.1481V29.7482C39.0913 29.2782 39.4683 28.8929 39.9384 28.8883ZM44.1984 28.9012H45.309C46.1073 28.9012 46.75 29.6582 46.75 30.5994V32.2993C46.75 33.2406 46.1073 33.9976 45.309 33.9976H44.1984V28.9012ZM1.97071 34.23C1.01185 34.9918 2.29442 36.3721 3.12451 35.4717C3.12451 35.4717 3.5482 35.0815 4.09736 34.6932C4.64653 34.3048 5.37241 34.0042 5.52177 34.0042C5.67113 34.0042 5.97333 34.2002 6.43154 34.6251C6.88975 35.0501 7.51062 35.7041 8.50341 35.7041C9.4962 35.7041 10.1088 35.0501 10.567 34.6251C11.0252 34.2001 11.3274 34.0042 11.4767 34.0042C11.6261 34.0042 11.9283 34.2002 12.3865 34.6251C12.8447 35.0501 13.4589 35.7041 14.4517 35.7041C15.4445 35.7041 16.0571 35.0501 16.5153 34.6251C16.9735 34.2001 17.2757 34.0042 17.4251 34.0042C17.5744 34.0042 17.8766 34.2002 18.3348 34.6251C18.793 35.0501 19.4056 35.7041 20.3984 35.7041C20.7221 35.7041 21.0025 35.6299 21.2534 35.5217V33.4233C20.8323 33.8064 20.5404 34.0027 20.3984 34.0027C20.2491 34.0027 19.9469 33.8019 19.4886 33.3769C19.0304 32.9519 18.4179 32.3028 17.4251 32.3028C16.4323 32.3028 15.8197 32.9519 15.3615 33.3769C14.9033 33.8018 14.6011 34.0027 14.4517 34.0027C14.3024 34.0027 13.9985 33.8019 13.5403 33.3769C13.0821 32.9519 12.4695 32.3028 11.4767 32.3028C10.484 32.3028 9.87138 32.9519 9.41318 33.3769C8.95496 33.8018 8.65277 34.0044 8.50341 34.0044C8.35406 34.0044 8.0502 33.802 7.59199 33.3769C7.13377 32.9519 6.51457 32.3028 5.52177 32.3027C4.52898 32.3027 3.77233 32.8454 3.11953 33.307C2.46674 33.7686 1.97071 34.23 1.97071 34.23ZM40.7983 37.3974C40.7983 38.5318 39.0966 38.5318 39.0966 37.3974V36.5508C39.0886 36.1128 39.415 35.7404 39.8503 35.6908C39.8783 35.6873 39.9067 35.6851 39.9366 35.6851C40.4175 35.6799 40.8067 36.0715 40.7983 36.5507L40.7983 37.3974ZM3.40176 36.5508C2.47466 36.5508 1.70176 37.3236 1.70176 38.2507V41.6522C1.70176 42.5792 2.47466 43.3521 3.40176 43.3521H23.5809C22.1594 42.1017 21.2534 40.276 21.2534 38.2507V36.5508H3.40176ZM0.000106083 45.8986C0.000106083 48.7092 2.29106 51 5.10176 51H45.8984C48.7091 51 51 48.7092 51 45.8986C50.9981 45.4292 50.6161 45.0502 50.1467 45.052H0.846785C0.819687 45.0507 0.792541 45.0507 0.765439 45.052C0.330627 45.0956 -0.000321225 45.4617 0.000106083 45.8986Z" fill="white"/>
</svg>
