<svg width="31" height="31" viewBox="0 0 31 31" fill="none" xmlns="http://www.w3.org/2000/svg">
<path fill-rule="evenodd" clip-rule="evenodd" d="M25.8333 6.45783H24.3221C24.0552 5.70152 23.5603 5.0466 22.9056 4.58335C22.2509 4.12011 21.4687 3.87134 20.6667 3.87134C19.8646 3.87134 19.0824 4.12011 18.4277 4.58335C17.773 5.0466 17.2781 5.70152 17.0112 6.45783H5.16666C4.82409 6.45783 4.49555 6.59392 4.25331 6.83615C4.01108 7.07839 3.87499 7.40693 3.87499 7.7495C3.87499 8.09207 4.01108 8.42061 4.25331 8.66285C4.49555 8.90508 4.82409 9.04117 5.16666 9.04117H17.0112C17.2781 9.79748 17.773 10.4524 18.4277 10.9156C19.0824 11.3789 19.8646 11.6277 20.6667 11.6277C21.4687 11.6277 22.2509 11.3789 22.9056 10.9156C23.5603 10.4524 24.0552 9.79748 24.3221 9.04117H25.8333C26.1759 9.04117 26.5044 8.90508 26.7467 8.66285C26.9889 8.42061 27.125 8.09207 27.125 7.7495C27.125 7.40693 26.9889 7.07839 26.7467 6.83615C26.5044 6.59392 26.1759 6.45783 25.8333 6.45783ZM20.6667 9.04117C21.0092 9.04117 21.3378 8.90508 21.58 8.66285C21.8222 8.42061 21.9583 8.09207 21.9583 7.7495C21.9583 7.40693 21.8222 7.07839 21.58 6.83615C21.3378 6.59392 21.0092 6.45783 20.6667 6.45783C20.3241 6.45783 19.9955 6.59392 19.7533 6.83615C19.5111 7.07839 19.375 7.40693 19.375 7.7495C19.375 8.09207 19.5111 8.42061 19.7533 8.66285C19.9955 8.90508 20.3241 9.04117 20.6667 9.04117ZM3.87499 15.4995C3.87499 15.1569 4.01108 14.8284 4.25331 14.5862C4.49555 14.3439 4.82409 14.2078 5.16666 14.2078H6.67791C6.94477 13.4515 7.43965 12.7966 8.09435 12.3334C8.74904 11.8701 9.53131 11.6213 10.3333 11.6213C11.1353 11.6213 11.9176 11.8701 12.5723 12.3334C13.227 12.7966 13.7219 13.4515 13.9887 14.2078H25.8333C26.1759 14.2078 26.5044 14.3439 26.7467 14.5862C26.9889 14.8284 27.125 15.1569 27.125 15.4995C27.125 15.8421 26.9889 16.1706 26.7467 16.4128C26.5044 16.6551 26.1759 16.7912 25.8333 16.7912H13.9887C13.7219 17.5475 13.227 18.2024 12.5723 18.6656C11.9176 19.1289 11.1353 19.3777 10.3333 19.3777C9.53131 19.3777 8.74904 19.1289 8.09435 18.6656C7.43965 18.2024 6.94477 17.5475 6.67791 16.7912H5.16666C4.82409 16.7912 4.49555 16.6551 4.25331 16.4128C4.01108 16.1706 3.87499 15.8421 3.87499 15.4995ZM10.3333 16.7912C10.6759 16.7912 11.0044 16.6551 11.2467 16.4128C11.4889 16.1706 11.625 15.8421 11.625 15.4995C11.625 15.1569 11.4889 14.8284 11.2467 14.5862C11.0044 14.3439 10.6759 14.2078 10.3333 14.2078C9.99075 14.2078 9.66221 14.3439 9.41998 14.5862C9.17774 14.8284 9.04166 15.1569 9.04166 15.4995C9.04166 15.8421 9.17774 16.1706 9.41998 16.4128C9.66221 16.6551 9.99075 16.7912 10.3333 16.7912ZM5.16666 21.9578C4.82409 21.9578 4.49555 22.0939 4.25331 22.3361C4.01108 22.5784 3.87499 22.9069 3.87499 23.2495C3.87499 23.5921 4.01108 23.9206 4.25331 24.1628C4.49555 24.4051 4.82409 24.5412 5.16666 24.5412H17.0112C17.2781 25.2975 17.773 25.9524 18.4277 26.4156C19.0824 26.8789 19.8646 27.1277 20.6667 27.1277C21.4687 27.1277 22.2509 26.8789 22.9056 26.4156C23.5603 25.9524 24.0552 25.2975 24.3221 24.5412H25.8333C26.1759 24.5412 26.5044 24.4051 26.7467 24.1628C26.9889 23.9206 27.125 23.5921 27.125 23.2495C27.125 22.9069 26.9889 22.5784 26.7467 22.3361C26.5044 22.0939 26.1759 21.9578 25.8333 21.9578H24.3221C24.0552 21.2015 23.5603 20.5466 22.9056 20.0833C22.2509 19.6201 21.4687 19.3713 20.6667 19.3713C19.8646 19.3713 19.0824 19.6201 18.4277 20.0833C17.773 20.5466 17.2781 21.2015 17.0112 21.9578H5.16666ZM21.9583 23.2495C21.9583 23.5921 21.8222 23.9206 21.58 24.1628C21.3378 24.4051 21.0092 24.5412 20.6667 24.5412C20.3241 24.5412 19.9955 24.4051 19.7533 24.1628C19.5111 23.9206 19.375 23.5921 19.375 23.2495C19.375 22.9069 19.5111 22.5784 19.7533 22.3361C19.9955 22.0939 20.3241 21.9578 20.6667 21.9578C21.0092 21.9578 21.3378 22.0939 21.58 22.3361C21.8222 22.5784 21.9583 22.9069 21.9583 23.2495Z" fill="#B3638A"/>
</svg>
