<svg width="66" height="85" viewBox="0 0 66 85" fill="none" xmlns="http://www.w3.org/2000/svg">
<path fill-rule="evenodd" clip-rule="evenodd" d="M14.9975 18.1205C14.9975 8.11284 23.0575 0 33 0C42.9425 0 51.0025 8.11284 51.0025 18.1205C51.0025 28.1282 42.9425 36.2411 33 36.2411C23.0575 36.2411 14.9975 28.1282 14.9975 18.1205Z" fill="#B3638A"/>
<path fill-rule="evenodd" clip-rule="evenodd" d="M0.000447793 74.9197C0.309851 56.8404 14.9655 42.2812 33 42.2812C51.035 42.2812 65.6908 56.8411 65.9995 74.921C66.02 76.12 65.3337 77.2176 64.2509 77.7178C54.7338 82.1134 44.1476 84.5625 33.0013 84.5625C21.8539 84.5625 11.2667 82.1129 1.74899 77.7166C0.666162 77.2164 -0.0200723 76.1187 0.000447793 74.9197Z" fill="#B3638A"/>
</svg>
