<svg width="28" height="28" viewBox="0 0 28 28" fill="none" xmlns="http://www.w3.org/2000/svg">
<path fill-rule="evenodd" clip-rule="evenodd" d="M23.3336 5.83335H21.9686C21.7276 5.15023 21.2806 4.55869 20.6892 4.14027C20.0979 3.72186 19.3913 3.49716 18.6669 3.49716C17.9425 3.49716 17.236 3.72186 16.6446 4.14027C16.0533 4.55869 15.6063 5.15023 15.3653 5.83335H4.66694C4.35752 5.83335 4.06077 5.95627 3.84198 6.17506C3.62319 6.39386 3.50027 6.6906 3.50027 7.00002C3.50027 7.30944 3.62319 7.60619 3.84198 7.82498C4.06077 8.04377 4.35752 8.16669 4.66694 8.16669H15.3653C15.6063 8.84981 16.0533 9.44135 16.6446 9.85977C17.236 10.2782 17.9425 10.5029 18.6669 10.5029C19.3913 10.5029 20.0979 10.2782 20.6892 9.85977C21.2806 9.44135 21.7276 8.84981 21.9686 8.16669H23.3336C23.643 8.16669 23.9398 8.04377 24.1586 7.82498C24.3774 7.60619 24.5003 7.30944 24.5003 7.00002C24.5003 6.6906 24.3774 6.39386 24.1586 6.17506C23.9398 5.95627 23.643 5.83335 23.3336 5.83335ZM18.6669 8.16669C18.9764 8.16669 19.2731 8.04377 19.4919 7.82498C19.7107 7.60619 19.8336 7.30944 19.8336 7.00002C19.8336 6.6906 19.7107 6.39386 19.4919 6.17506C19.2731 5.95627 18.9764 5.83335 18.6669 5.83335C18.3575 5.83335 18.0608 5.95627 17.842 6.17506C17.6232 6.39386 17.5003 6.6906 17.5003 7.00002C17.5003 7.30944 17.6232 7.60619 17.842 7.82498C18.0608 8.04377 18.3575 8.16669 18.6669 8.16669ZM3.50027 14C3.50027 13.6906 3.62319 13.3939 3.84198 13.1751C4.06077 12.9563 4.35752 12.8334 4.66694 12.8334H6.03194C6.27297 12.1502 6.71997 11.5587 7.3113 11.1403C7.90264 10.7219 8.60921 10.4972 9.3336 10.4972C10.058 10.4972 10.7646 10.7219 11.3559 11.1403C11.9472 11.5587 12.3942 12.1502 12.6353 12.8334H23.3336C23.643 12.8334 23.9398 12.9563 24.1586 13.1751C24.3774 13.3939 24.5003 13.6906 24.5003 14C24.5003 14.3094 24.3774 14.6062 24.1586 14.825C23.9398 15.0438 23.643 15.1667 23.3336 15.1667H12.6353C12.3942 15.8498 11.9472 16.4413 11.3559 16.8598C10.7646 17.2782 10.058 17.5029 9.3336 17.5029C8.60921 17.5029 7.90264 17.2782 7.3113 16.8598C6.71997 16.4413 6.27297 15.8498 6.03194 15.1667H4.66694C4.35752 15.1667 4.06077 15.0438 3.84198 14.825C3.62319 14.6062 3.50027 14.3094 3.50027 14ZM9.3336 15.1667C9.64302 15.1667 9.93977 15.0438 10.1586 14.825C10.3774 14.6062 10.5003 14.3094 10.5003 14C10.5003 13.6906 10.3774 13.3939 10.1586 13.1751C9.93977 12.9563 9.64302 12.8334 9.3336 12.8334C9.02419 12.8334 8.72744 12.9563 8.50865 13.1751C8.28985 13.3939 8.16694 13.6906 8.16694 14C8.16694 14.3094 8.28985 14.6062 8.50865 14.825C8.72744 15.0438 9.02419 15.1667 9.3336 15.1667ZM4.66694 19.8334C4.35752 19.8334 4.06077 19.9563 3.84198 20.1751C3.62319 20.3939 3.50027 20.6906 3.50027 21C3.50027 21.3094 3.62319 21.6062 3.84198 21.825C4.06077 22.0438 4.35752 22.1667 4.66694 22.1667H15.3653C15.6063 22.8498 16.0533 23.4413 16.6446 23.8598C17.236 24.2782 17.9425 24.5029 18.6669 24.5029C19.3913 24.5029 20.0979 24.2782 20.6892 23.8598C21.2806 23.4413 21.7276 22.8498 21.9686 22.1667H23.3336C23.643 22.1667 23.9398 22.0438 24.1586 21.825C24.3774 21.6062 24.5003 21.3094 24.5003 21C24.5003 20.6906 24.3774 20.3939 24.1586 20.1751C23.9398 19.9563 23.643 19.8334 23.3336 19.8334H21.9686C21.7276 19.1502 21.2806 18.5587 20.6892 18.1403C20.0979 17.7219 19.3913 17.4972 18.6669 17.4972C17.9425 17.4972 17.236 17.7219 16.6446 18.1403C16.0533 18.5587 15.6063 19.1502 15.3653 19.8334H4.66694ZM19.8336 21C19.8336 21.3094 19.7107 21.6062 19.4919 21.825C19.2731 22.0438 18.9764 22.1667 18.6669 22.1667C18.3575 22.1667 18.0608 22.0438 17.842 21.825C17.6232 21.6062 17.5003 21.3094 17.5003 21C17.5003 20.6906 17.6232 20.3939 17.842 20.1751C18.0608 19.9563 18.3575 19.8334 18.6669 19.8334C18.9764 19.8334 19.2731 19.9563 19.4919 20.1751C19.7107 20.3939 19.8336 20.6906 19.8336 21Z" fill="#B3638A"/>
</svg>
