<svg width="63" height="26" viewBox="0 0 63 26" fill="none" xmlns="http://www.w3.org/2000/svg">
<path d="M5.03524 0.480793C3.30272 1.18719 1.17039 3.01738 0.537356 4.26962C-0.0290431 5.42554 -0.195631 7.19152 0.270815 7.4805C0.870533 7.83369 2.83627 6.45302 4.90196 4.23751C7.00097 1.9899 8.43363 0.930315 9.36653 0.930315C9.59975 0.930315 9.09999 1.34773 8.26704 1.86147C7.4341 2.37521 6.26799 3.4669 5.70159 4.26962C4.50215 5.93928 2.90291 7.19152 1.60352 7.5126C1.07044 7.64104 0.670627 7.8658 0.670627 8.02634C0.670627 8.50797 2.80295 8.86117 4.16898 8.57219C6.40126 8.09056 9.89961 5.42554 9.66638 4.33384C9.63307 4.1733 9.79966 3.94854 10.0329 3.78799C10.2661 3.65956 10.4327 3.0816 10.4327 2.50364C10.4327 0.352358 7.73396 -0.675121 5.03524 0.480793Z" fill="white"/>
<path d="M27.3247 12.9713V25.6542H30.1567H32.9887V22.7002V19.7141L36.0872 22.7002L39.1525 25.6542H42.6508H46.1492L42.0511 21.7048L37.9864 17.7876L41.7179 14.1593L45.4828 10.5631H41.8179H38.1529L35.5875 13.0355L32.9887 15.54V7.89808V0.288309H30.1567H27.3247V12.9713Z" fill="white"/>
<path d="M48.1149 3.62768C48.0149 3.85244 47.9816 4.68727 48.0482 5.45788L48.1482 6.87067L54.4119 6.96699L60.6423 7.03121V5.10469V3.17816H54.4785C49.5142 3.17816 48.2481 3.27449 48.1149 3.62768Z" fill="white"/>
<path d="M16.8963 10.3704C16.1966 10.6273 15.3637 11.0447 15.0305 11.3337C14.2642 12.008 13.9976 11.9759 13.9976 11.2053C13.9976 10.6273 13.7644 10.5631 11.3322 10.5631H8.66683V18.1087V25.6542H11.2989H13.9643L14.0643 20.8058L14.1642 15.9574L15.2637 15.0262C17.1295 13.4208 19.3285 13.9987 19.9948 16.2785C20.1614 16.9206 20.328 19.2967 20.328 21.5443V25.6542H22.9934H25.6588V20.0994C25.6588 14.8657 25.5922 14.4161 24.8925 13.0997C23.5931 10.7236 19.6616 9.40718 16.8963 10.3704Z" fill="white"/>
<path d="M50.014 10.4025C48.1482 10.9804 46.2158 12.7785 45.2829 14.8656C43.9835 17.8196 44.8164 21.9295 47.2153 24.1129C49.7808 26.4889 54.4785 26.6495 57.0773 24.434C57.6104 23.9845 57.6437 24.0166 57.6437 24.7872C57.6437 25.6541 57.6437 25.6541 60.3091 25.6541H62.9745V18.1086V10.563H60.3091C57.8436 10.563 57.6437 10.5951 57.6437 11.2373V11.8795L56.7108 11.2373C55.7446 10.5951 53.4124 9.92084 52.1463 9.95294C51.7798 9.95294 50.8136 10.1777 50.014 10.4025ZM55.6447 14.8977C57.0107 15.572 57.6437 16.5995 57.6437 18.2049C57.6437 19.3287 57.4438 19.7782 56.6775 20.5488C55.8446 21.3194 55.4114 21.48 54.0454 21.48C52.7127 21.48 52.2463 21.3194 51.5466 20.6452C49.7474 18.9113 50.2139 15.7967 52.3795 14.8977C53.8122 14.3197 54.4452 14.3197 55.6447 14.8977Z" fill="white"/>
<path d="M1.00385 18.1087V25.6542H3.66926H6.33467V18.1087V10.5631H3.66926H1.00385V18.1087Z" fill="white"/>
</svg>
