<svg width="67" height="46" viewBox="0 0 67 46" fill="none" xmlns="http://www.w3.org/2000/svg">
<path d="M33.7513 0C12.5625 0 0 22.9713 0 22.9713C0 22.9713 12.5625 45.9425 33.7513 45.9425C54.4375 45.9425 67 22.9713 67 22.9713C67 22.9713 54.4375 0 33.7513 0ZM33.5 7.65709C42.7963 7.65709 50.25 14.5485 50.25 22.9713C50.25 31.4706 42.7963 38.2854 33.5 38.2854C24.2875 38.2854 16.75 31.4706 16.75 22.9713C16.75 14.5485 24.2875 7.65709 33.5 7.65709ZM33.5 15.3142C28.8938 15.3142 25.125 18.7599 25.125 22.9713C25.125 27.1827 28.8938 30.6283 33.5 30.6283C38.1063 30.6283 41.875 27.1827 41.875 22.9713C41.875 22.2056 41.54 21.5164 41.3725 20.8273C40.7025 22.0524 39.3625 22.9713 37.6875 22.9713C35.3425 22.9713 33.5 21.2867 33.5 19.1427C33.5 17.6113 34.505 16.3862 35.845 15.7736C35.0913 15.5439 34.3375 15.3142 33.5 15.3142Z" fill="white"/>
</svg>
