<svg width="52" height="22" viewBox="0 0 52 22" fill="none" xmlns="http://www.w3.org/2000/svg">
<path d="M4.15773 0.397038C2.72714 0.980325 0.966423 2.49157 0.44371 3.52558C-0.0239817 4.48005 -0.161538 5.93826 0.22362 6.17688C0.718822 6.46852 2.34199 5.32846 4.04768 3.49906C5.78089 1.64315 6.96388 0.76822 7.73419 0.76822C7.92677 0.76822 7.5141 1.11289 6.82632 1.5371C6.13854 1.96131 5.17565 2.86275 4.70795 3.52558C3.71755 4.90425 2.39701 5.93826 1.32407 6.20339C0.88389 6.30945 0.553755 6.49504 0.553755 6.6276C0.553755 7.0253 2.31447 7.31694 3.44244 7.07832C5.28569 6.68063 8.17437 4.48005 7.98179 3.5786C7.95428 3.44604 8.09184 3.26045 8.28442 3.12788C8.477 3.02183 8.61455 2.54459 8.61455 2.06736C8.61455 0.290986 6.38614 -0.557432 4.15773 0.397038Z" fill="white"/>
<path d="M22.5628 10.7106V21.1832H24.9013H27.2397V18.744V16.2783L29.7983 18.744L32.3293 21.1832H35.218H38.1067L34.7228 17.9221L31.3664 14.6875L34.4477 11.6915L37.5564 8.72208H34.5302H31.504L29.3856 10.7636L27.2397 12.8316V6.5215V0.237908H24.9013H22.5628V10.7106Z" fill="white"/>
<path d="M39.73 2.99529C39.6474 3.18088 39.6199 3.87022 39.6749 4.50653L39.7575 5.6731L44.9296 5.75264L50.0742 5.80567V4.21489V2.6241H44.9846C40.8854 2.6241 39.84 2.70364 39.73 2.99529Z" fill="white"/>
<path d="M13.9519 8.563C13.3742 8.77511 12.6864 9.11978 12.4113 9.35839C11.7785 9.91517 11.5584 9.88865 11.5584 9.25234C11.5584 8.77511 11.3658 8.72208 9.35752 8.72208H7.15662V14.9526V21.1832H9.33001H11.5309L11.6134 17.1797L11.696 13.1763L12.6039 12.4074C14.1445 11.0817 15.9602 11.559 16.5104 13.4414C16.648 13.9717 16.7856 15.9336 16.7856 17.7895V21.1832H18.9865H21.1874V16.5965C21.1874 12.2748 21.1323 11.9036 20.5546 10.8166C19.4817 8.85464 16.2353 7.76761 13.9519 8.563Z" fill="white"/>
<path d="M41.2981 8.58959C39.7574 9.06682 38.1618 10.5516 37.3915 12.2749C36.3185 14.7141 37.0063 18.1078 38.9871 19.9107C41.1055 21.8726 44.9846 22.0052 47.1305 20.1758C47.5706 19.8046 47.5981 19.8311 47.5981 20.4674C47.5981 21.1833 47.5981 21.1833 49.799 21.1833H51.9999V14.9527V8.72215H49.799C47.7632 8.72215 47.5981 8.74867 47.5981 9.27893V9.80919L46.8278 9.27893C46.03 8.74867 44.1042 8.19189 43.0588 8.21841C42.7562 8.21841 41.9583 8.404 41.2981 8.58959ZM45.9475 12.3014C47.0754 12.8582 47.5981 13.7066 47.5981 15.0323C47.5981 15.9602 47.4331 16.3314 46.8003 16.9677C46.1125 17.604 45.7549 17.7366 44.6269 17.7366C43.5265 17.7366 43.1413 17.604 42.5636 17.0472C41.078 15.6155 41.4631 13.0438 43.2514 12.3014C44.4343 11.8242 44.9571 11.8242 45.9475 12.3014Z" fill="white"/>
<path d="M0.829012 14.9526V21.1832H3.02991H5.23081V14.9526V8.72208H3.02991H0.829012V14.9526Z" fill="white"/>
</svg>
