<svg width="59" height="76" viewBox="0 0 59 76" fill="none" xmlns="http://www.w3.org/2000/svg">
<path fill-rule="evenodd" clip-rule="evenodd" d="M13.3736 16.2857C13.3736 7.29136 20.5609 0 29.4268 0C38.2928 0 45.48 7.29136 45.48 16.2857C45.48 25.2801 38.2928 32.5714 29.4268 32.5714C20.5609 32.5714 13.3736 25.2801 13.3736 16.2857Z" fill="#89375F"/>
<path fill-rule="evenodd" clip-rule="evenodd" d="M0.000399307 67.3336C0.276301 51.0849 13.345 38 29.4268 38C45.509 38 58.578 51.0855 58.8533 67.3347C58.8715 68.4124 58.2595 69.3988 57.2939 69.8483C48.8074 73.7989 39.3674 76 29.428 76C19.4876 76 10.0468 73.7985 1.55961 69.8472C0.594031 69.3977 -0.0178989 68.4112 0.000399307 67.3336Z" fill="#89375F"/>
</svg>
