<svg width="63" height="62" viewBox="0 0 63 62" fill="none" xmlns="http://www.w3.org/2000/svg">
<mask id="mask0_1_177" style="mask-type:luminance" maskUnits="userSpaceOnUse" x="-4" y="-3" width="70" height="68">
<path d="M65.9609 -2.06669H-3.24861V64.0668H65.9609V-2.06669Z" fill="white"/>
</mask>
<g mask="url(#mask0_1_177)">
<path d="M3.96116 43.6139H14.5232C15.252 43.6139 16.2621 44.0138 16.7768 44.5057L28.8852 56.077C30.4316 57.5536 31.686 57.0566 31.686 54.9682V7.02763C31.686 4.93925 30.4316 4.44222 28.8852 5.91989L16.7768 17.4902C16.2621 17.9831 15.252 18.3819 14.5232 18.3819H3.96116C1.77457 18.3819 0 20.0787 0 22.167V39.8288C0 41.9182 1.77457 43.6139 3.96116 43.6139Z" fill="white"/>
<path fill-rule="evenodd" clip-rule="evenodd" d="M57.4308 31C57.4308 25.2981 55.5427 19.7346 52.0314 15.1166C48.585 10.5751 43.7663 7.13098 38.2349 5.25134L36.9838 4.82767C36.2971 4.59517 35.938 3.87287 36.1814 3.21774L37.0659 0.838997C37.3103 0.182829 38.0662 -0.160239 38.7518 0.0732951L39.9911 0.494896C46.539 2.71553 52.2293 6.77758 56.3094 12.152C60.4674 17.6276 62.7124 24.2255 62.7124 31C62.7124 37.7622 60.4674 44.36 56.3094 49.8357C52.2293 55.21 46.539 59.2845 39.9911 61.5051L38.7518 61.9267C38.0662 62.1602 37.3103 61.8172 37.0659 61.161L36.1814 58.7823C35.938 58.1271 36.2971 57.4048 36.9838 57.1723L38.2349 56.7487C43.7663 54.869 48.585 51.4249 52.0314 46.8834C55.5427 42.2654 57.4308 36.702 57.4308 31Z" fill="white"/>
<path d="M37.9311 18.0688L36.747 17.5005C36.096 17.1874 35.8332 16.4279 36.1609 15.8058L37.3515 13.5438C37.6781 12.9218 38.4718 12.6717 39.1228 12.9858L40.294 13.5521C43.7404 15.2055 46.671 17.6648 48.836 20.7059C50.975 23.746 52.1375 27.3285 52.1504 31C52.1375 34.6714 50.975 38.2416 48.836 41.2817C46.671 44.3218 43.7404 46.7821 40.294 48.4355L39.1228 49.0007C38.4718 49.3148 37.6781 49.0658 37.3504 48.4437L36.162 46.1931C35.8343 45.5711 36.096 44.8126 36.747 44.4995L37.9311 43.9312C40.5589 42.6695 42.8028 40.7774 44.466 38.4555C46.0113 36.2483 46.8559 33.6619 46.8689 31C46.8559 28.3381 46.0113 25.7393 44.466 23.5445C42.8028 21.2102 40.5589 19.3305 37.9311 18.0688Z" fill="white"/>
</g>
</svg>
