<svg width="80" height="76" viewBox="0 0 80 76" fill="none" xmlns="http://www.w3.org/2000/svg">
<path d="M59.2966 34.215V61.0973C59.2966 61.7867 59.0059 62.4479 58.4886 62.9354C57.9713 63.4228 57.2696 63.6967 56.538 63.6967H15.1587C14.427 63.6967 13.7254 63.4228 13.208 62.9354C12.6907 62.4479 12.4 61.7867 12.4 61.0973V29.9053H32.6566L49.2111 14.3093H15.1587C10.5959 14.3093 6.8828 17.808 6.8828 22.1073V61.0973C6.8828 65.3966 10.5959 68.8953 15.1587 68.8953H56.538C61.1007 68.8953 64.8138 65.3966 64.8138 61.0973V29.0138L59.2966 34.215ZM67.6 19.0349L71.5007 15.3595C72.0277 14.8799 72.448 14.3063 72.7371 13.672C73.0263 13.0377 73.1785 12.3556 73.1849 11.6653C73.1912 10.975 73.0516 10.2905 72.7742 9.65157C72.4968 9.01267 72.0871 8.43223 71.5691 7.94411C71.0511 7.456 70.4351 7.06998 69.757 6.80859C69.079 6.54719 68.3525 6.41566 67.6199 6.42166C66.8873 6.42765 66.1633 6.57107 65.4902 6.84352C64.8171 7.11598 64.2083 7.51203 63.6993 8.00855L59.7987 11.684L67.6 19.0349Z" fill="white"/>
<path d="M55.8952 15.3594L36.3917 33.7393L34.4386 42.9306L44.1931 41.0902L63.6993 22.7129L55.8952 15.3594Z" fill="white"/>
</svg>
