<svg width="63" height="70" viewBox="0 0 63 70" fill="none" xmlns="http://www.w3.org/2000/svg">
<path d="M62.9999 23.2359V67.7064C62.9999 68.1978 62.8047 68.6691 62.4572 69.0166C62.1097 69.3641 61.6384 69.5593 61.147 69.5593H50.0294C49.5379 69.5593 49.0666 69.3641 48.7191 69.0166C48.3716 68.6691 48.1764 68.1978 48.1764 67.7064V23.2359C48.1764 22.7444 48.3716 22.2731 48.7191 21.9256C49.0666 21.5781 49.5379 21.3829 50.0294 21.3829H61.147C61.6384 21.3829 62.1097 21.5781 62.4572 21.9256C62.8047 22.2731 62.9999 22.7444 62.9999 23.2359ZM37.0588 36.2064H25.9411C25.4497 36.2064 24.9784 36.4016 24.6309 36.7491C24.2834 37.0966 24.0882 37.5679 24.0882 38.0594V67.7064C24.0882 68.1978 24.2834 68.6691 24.6309 69.0166C24.9784 69.3641 25.4497 69.5593 25.9411 69.5593H37.0588C37.5502 69.5593 38.0215 69.3641 38.369 69.0166C38.7165 68.6691 38.9117 68.1978 38.9117 67.7064V38.0594C38.9117 37.5679 38.7165 37.0966 38.369 36.7491C38.0215 36.4016 37.5502 36.2064 37.0588 36.2064ZM12.9706 51.0299H1.85294C1.36151 51.0299 0.890207 51.2252 0.542714 51.5726C0.19522 51.9201 0 52.3914 0 52.8829V67.7064C0 68.1978 0.19522 68.6691 0.542714 69.0166C0.890207 69.3641 1.36151 69.5593 1.85294 69.5593H12.9706C13.462 69.5593 13.9333 69.3641 14.2808 69.0166C14.6283 68.6691 14.8235 68.1978 14.8235 67.7064V52.8829C14.8235 52.3914 14.6283 51.9201 14.2808 51.5726C13.9333 51.2252 13.462 51.0299 12.9706 51.0299ZM49.1029 11.97L48.1764 0.852352C48.1971 0.729693 48.1971 0.604423 48.1764 0.481764C48.1764 0.481764 48.1764 0.481764 48.1764 0.29647L47.917 0H47.6576H46.8423L35.91 1.96411C35.6686 2.00445 35.4376 2.0922 35.2303 2.22231C35.023 2.35241 34.8435 2.52229 34.7023 2.72213C34.561 2.92198 34.4607 3.14783 34.4072 3.38665C34.3537 3.62546 34.348 3.87251 34.3905 4.11352C34.4762 4.54191 34.7076 4.9274 35.0454 5.20441C35.3833 5.48142 35.8066 5.63285 36.2435 5.63293H36.54L42.9511 4.48411C38.8417 9.51307 33.717 13.6178 27.912 16.5299C22.1071 19.4419 15.7528 21.0957 9.26469 21.3829C8.77326 21.3829 8.30196 21.5781 7.95447 21.9256C7.60698 22.2731 7.41176 22.7444 7.41176 23.2359C7.41176 23.7273 7.60698 24.1986 7.95447 24.5461C8.30196 24.8936 8.77326 25.0888 9.26469 25.0888C16.2209 24.6537 23.0029 22.7315 29.153 19.4519C35.303 16.1723 40.678 11.6116 44.9152 6.07764L45.4341 12.2665C45.4708 12.7254 45.6772 13.1543 46.0129 13.4694C46.3486 13.7846 46.7896 13.9634 47.2499 13.9712H47.4352C47.9206 13.9241 48.3679 13.6877 48.6801 13.3131C48.9922 12.9385 49.1442 12.4559 49.1029 11.97Z" fill="white"/>
</svg>
