<svg width="13" height="12" viewBox="0 0 13 12" fill="none" xmlns="http://www.w3.org/2000/svg">
<path d="M5.30876 0.0148655C2.38136 0.0148655 0 2.34876 0 5.2178C0 8.08685 2.38136 10.4207 5.30876 10.4207C6.20367 10.4207 7.08341 10.2126 7.82663 9.81126C7.88617 9.88147 7.95217 9.94616 8.02381 10.0045L9.5406 11.4911C9.68066 11.6455 9.85145 11.7703 10.0425 11.8577C10.2335 11.9451 10.4408 11.9934 10.6515 11.9994C10.8623 12.0055 11.0721 11.9693 11.268 11.8931C11.464 11.8168 11.6419 11.7021 11.791 11.556C11.9401 11.4099 12.0572 11.2354 12.135 11.0434C12.2128 10.8513 12.2497 10.6457 12.2435 10.4392C12.2373 10.2327 12.1881 10.0295 12.0989 9.8423C12.0097 9.65507 11.8824 9.48769 11.7248 9.35042L10.208 7.86387C10.1341 7.79143 10.0528 7.72667 9.96531 7.67062C10.3748 6.94221 10.6327 6.09487 10.6327 5.20294C10.6327 2.33389 8.25133 0 5.32393 0L5.30876 0.0148655ZM5.30876 1.50142C7.4171 1.50142 9.10074 3.15149 9.10074 5.2178C9.10074 6.19893 8.73671 7.10573 8.09965 7.77468C8.08449 7.78954 8.06932 7.80441 8.05415 7.81927C7.98251 7.87762 7.9165 7.94231 7.85697 8.01253C7.18958 8.60715 6.27951 8.94905 5.29359 8.94905C3.18526 8.94905 1.50162 7.29898 1.50162 5.23267C1.50162 3.16636 3.18526 1.51628 5.29359 1.51628L5.30876 1.50142Z" fill="#959595"/>
</svg>
