<svg width="27" height="27" viewBox="0 0 27 27" fill="none" xmlns="http://www.w3.org/2000/svg">
<path d="M20.475 14.3626H13.9125V20.9251C13.9125 21.647 13.3219 22.2376 12.6 22.2376C11.8781 22.2376 11.2875 21.647 11.2875 20.9251V14.3626H4.72502C4.00314 14.3626 3.41252 13.772 3.41252 13.0501C3.41252 12.3282 4.00314 11.7376 4.72502 11.7376H11.2875V5.17508C11.2875 4.4532 11.8781 3.86258 12.6 3.86258C13.3219 3.86258 13.9125 4.4532 13.9125 5.17508V11.7376H20.475C21.1969 11.7376 21.7875 12.3282 21.7875 13.0501C21.7875 13.772 21.1969 14.3626 20.475 14.3626Z" fill="white"/>
</svg>
