<svg width="57" height="24" viewBox="0 0 57 24" fill="none" xmlns="http://www.w3.org/2000/svg">
<path d="M4.55753 0.435213C2.98938 1.07459 1.05935 2.73115 0.486376 3.86458C-0.0262877 4.91083 -0.177071 6.50927 0.245122 6.77083C0.787942 7.09052 2.56719 5.84083 4.4369 3.83552C6.33677 1.80115 7.63351 0.842088 8.47789 0.842088C8.68899 0.842088 8.23664 1.2199 7.48272 1.6849C6.72881 2.1499 5.67332 3.13802 5.16066 3.86458C4.07502 5.37583 2.6275 6.50927 1.45139 6.79989C0.968882 6.91614 0.607002 7.11958 0.607002 7.26489C0.607002 7.70083 2.53703 8.02052 3.77345 7.75896C5.79395 7.32302 8.9604 4.91083 8.7493 3.92271C8.71915 3.7774 8.86993 3.57396 9.08103 3.42865C9.29212 3.3124 9.44291 2.78927 9.44291 2.26615C9.44291 0.318963 7.00022 -0.611036 4.55753 0.435213Z" fill="white"/>
<path d="M24.7323 11.7405V23.2202H27.2956H29.859V20.5464V17.8436L32.6635 20.5464L35.4379 23.2202H38.6044H41.7708L38.0616 19.6455L34.3825 16.0999L37.76 12.8158L41.1677 9.56084H37.8505H34.5332L32.2112 11.7986L29.859 14.0655V7.14865V0.260847H27.2956H24.7323V11.7405Z" fill="white"/>
<path d="M43.5501 3.28332C43.4597 3.48676 43.4295 4.24239 43.4898 4.93988L43.5803 6.21863L49.2497 6.30582L54.889 6.36395V4.6202V2.87645H49.3101C44.8167 2.87645 43.6708 2.96364 43.5501 3.28332Z" fill="white"/>
<path d="M15.2933 9.38646C14.66 9.61896 13.9061 9.99677 13.6045 10.2583C12.9109 10.8686 12.6697 10.8396 12.6697 10.1421C12.6697 9.61896 12.4586 9.56084 10.2571 9.56084H7.84459V16.3905V23.2202H10.227H12.6395L12.73 18.8318L12.8204 14.4433L13.8156 13.6005C15.5044 12.1474 17.4947 12.6705 18.0979 14.734C18.2486 15.3152 18.3994 17.4658 18.3994 19.5002V23.2202H20.812H23.2245V18.1924C23.2245 13.4552 23.1642 13.0483 22.5309 11.8568C21.3548 9.70615 17.7963 8.51459 15.2933 9.38646Z" fill="white"/>
<path d="M45.2691 9.41551C43.5803 9.93864 41.8312 11.5661 40.9868 13.4552C39.8107 16.1289 40.5646 19.8489 42.7359 21.8252C45.058 23.9758 49.31 24.1211 51.6623 22.1158C52.1448 21.7089 52.1749 21.738 52.1749 22.4355C52.1749 23.2202 52.1749 23.2202 54.5875 23.2202H57V16.3905V9.56082H54.5875C52.3559 9.56082 52.1749 9.58989 52.1749 10.1711V10.7524L51.3305 10.1711C50.456 9.58989 48.345 8.97958 47.1991 9.00864C46.8674 9.00864 45.9928 9.21208 45.2691 9.41551ZM50.3655 13.4843C51.602 14.0946 52.1749 15.0246 52.1749 16.4777C52.1749 17.4949 51.994 17.9018 51.3004 18.5993C50.5465 19.2968 50.1544 19.4421 48.918 19.4421C47.7117 19.4421 47.2896 19.2968 46.6563 18.6864C45.0278 17.1171 45.45 14.298 47.4102 13.4843C48.7069 12.9611 49.2799 12.9611 50.3655 13.4843Z" fill="white"/>
<path d="M0.908592 16.3905V23.2202H3.32113H5.73366V16.3905V9.56084H3.32113H0.908592V16.3905Z" fill="white"/>
</svg>
