<svg width="22" height="22" viewBox="0 0 22 22" fill="none" xmlns="http://www.w3.org/2000/svg">
<path d="M20.6655 3.14423H19.3172V4.89551C19.3172 5.076 19.2432 5.2491 19.1115 5.37673C18.9798 5.50436 18.8012 5.57606 18.6149 5.57606C18.4287 5.57606 18.25 5.50436 18.1183 5.37673C17.9866 5.2491 17.9126 5.076 17.9126 4.89551V3.14423H11.7045V4.89551C11.7045 5.076 11.6306 5.2491 11.4989 5.37673C11.3672 5.50436 11.1885 5.57606 11.0023 5.57606C10.816 5.57606 10.6374 5.50436 10.5057 5.37673C10.374 5.2491 10.3 5.076 10.3 4.89551V3.14423H4.10595V4.89551C4.10595 5.076 4.03196 5.2491 3.90026 5.37673C3.76856 5.50436 3.58994 5.57606 3.40368 5.57606C3.21743 5.57606 3.0388 5.50436 2.9071 5.37673C2.7754 5.2491 2.70141 5.076 2.70141 4.89551V3.14423H1.33432C0.980435 3.14423 0.641046 3.28046 0.390813 3.52296C0.14058 3.76545 0 4.09434 0 4.43728L0 20.7069C0.00123388 21.0495 0.14221 21.3777 0.392176 21.6199C0.642142 21.8622 0.980815 21.9988 1.33432 22H20.6655C20.8408 22 21.0143 21.9665 21.1762 21.9015C21.3381 21.8366 21.4851 21.7413 21.609 21.6212C21.733 21.5012 21.8312 21.3586 21.8983 21.2017C21.9653 21.0449 21.9999 20.8767 21.9999 20.7069V4.44635C22.0017 4.27562 21.9686 4.10623 21.9023 3.94803C21.836 3.78982 21.7379 3.64597 21.6138 3.52481C21.4896 3.40366 21.3419 3.30762 21.1791 3.24229C21.0163 3.17695 20.8417 3.14362 20.6655 3.14423ZM17.1448 9.45519L9.71945 16.6599C9.65446 16.7233 9.57713 16.7736 9.49195 16.8079C9.40676 16.8422 9.31541 16.8597 9.22318 16.8596C9.03709 16.8589 8.85877 16.7872 8.72691 16.6599L4.85505 12.9078C4.72838 12.7787 4.65888 12.6067 4.66141 12.4286C4.66395 12.2504 4.73832 12.0803 4.86862 11.9547C4.99892 11.829 5.17479 11.7577 5.35862 11.7561C5.54245 11.7545 5.71964 11.8226 5.85227 11.946L9.22318 15.2126L16.1523 8.50242C16.2854 8.38221 16.4615 8.31676 16.6434 8.31987C16.8254 8.32298 16.9989 8.39441 17.1276 8.5191C17.2563 8.64378 17.33 8.812 17.3332 8.98831C17.3364 9.16462 17.2689 9.33525 17.1448 9.46426V9.45519Z" fill="#89375F"/>
<path d="M4.10596 0.689622V3.14413H2.70141V0.680548C2.70141 0.591178 2.71958 0.502682 2.75487 0.420114C2.79016 0.337546 2.84189 0.262523 2.9071 0.199328C2.97231 0.136133 3.04973 0.0860044 3.13494 0.0518037C3.22014 0.0176029 3.31146 1.43664e-08 3.40368 1.43664e-08C3.49591 1.43664e-08 3.58723 0.0176029 3.67243 0.0518037C3.75764 0.0860044 3.83505 0.136133 3.90027 0.199328C3.96548 0.262523 4.01721 0.337546 4.0525 0.420114C4.08779 0.502682 4.10596 0.591178 4.10596 0.680548V0.689622ZM11.7045 0.689622V3.14413H10.3V0.680548C10.3 0.591178 10.3182 0.502682 10.3535 0.420114C10.3888 0.337546 10.4405 0.262523 10.5057 0.199328C10.5709 0.136133 10.6483 0.0860044 10.7335 0.0518037C10.8187 0.0176029 10.9101 0 11.0023 0C11.0945 0 11.1858 0.0176029 11.271 0.0518037C11.3562 0.0860044 11.4336 0.136133 11.4989 0.199328C11.5641 0.262523 11.6158 0.337546 11.6511 0.420114C11.6864 0.502682 11.7045 0.591178 11.7045 0.680548V0.689622ZM19.3172 0.689622V3.14413H17.9126V0.680548C17.9126 0.500056 17.9866 0.326956 18.1183 0.199328C18.25 0.0717005 18.4287 2.87327e-08 18.6149 2.87327e-08C18.8012 2.87327e-08 18.9798 0.0717005 19.1115 0.199328C19.2432 0.326956 19.3172 0.500056 19.3172 0.680548V0.689622Z" fill="#89375F"/>
</svg>
