<svg width="20" height="13" viewBox="0 0 20 13" fill="none" xmlns="http://www.w3.org/2000/svg">
<path d="M18.4708 5.41663H1.02917C0.460774 5.41663 0 5.8774 0 6.44579V6.55413C0 7.12252 0.460774 7.58329 1.02917 7.58329H18.4708C19.0392 7.58329 19.5 7.12252 19.5 6.55413V6.44579C19.5 5.8774 19.0392 5.41663 18.4708 5.41663Z" fill="white"/>
<path d="M18.4708 10.8334H1.02917C0.460774 10.8334 0 11.2941 0 11.8625V11.9709C0 12.5393 0.460774 13 1.02917 13H18.4708C19.0392 13 19.5 12.5393 19.5 11.9709V11.8625C19.5 11.2941 19.0392 10.8334 18.4708 10.8334Z" fill="white"/>
<path d="M18.4708 0H1.02917C0.460774 0 0 0.460774 0 1.02917V1.1375C0 1.70589 0.460774 2.16667 1.02917 2.16667H18.4708C19.0392 2.16667 19.5 1.70589 19.5 1.1375V1.02917C19.5 0.460774 19.0392 0 18.4708 0Z" fill="white"/>
</svg>
