<svg width="32" height="27" viewBox="0 0 32 27" fill="none" xmlns="http://www.w3.org/2000/svg">
<path d="M29.5311 0H1.96874C0.87187 0 0 0.892972 0 1.98985V25.0102C0 26.1071 0.87187 27.0001 1.96874 27.0001H29.5311C30.6279 27.0001 31.4998 26.1071 31.4998 25.0102V1.98985C31.4998 0.892972 30.6279 0 29.5311 0ZM22.2819 13.9008C22.071 13.6547 21.7475 13.4649 21.3819 13.4649C21.0233 13.4649 20.7702 13.6336 20.4819 13.8657L19.1671 14.9766C18.8929 15.1735 18.6749 15.3071 18.3585 15.3071C18.0561 15.3071 17.7819 15.1946 17.5851 15.0188C17.5147 14.9555 17.3882 14.836 17.2827 14.7305L13.4999 10.6383C13.2187 10.3149 12.7968 10.111 12.3257 10.111C11.8546 10.111 11.4187 10.343 11.1445 10.6594L2.24999 21.3891V3.07267C2.3203 2.59454 2.69295 2.25001 3.17107 2.25001H28.3217C28.8069 2.25001 29.2006 2.6086 29.2287 3.09376L29.2498 21.4032L22.2819 13.9008Z" fill="#959595"/>
</svg>
