<svg width="13" height="13" viewBox="0 0 13 13" fill="none" xmlns="http://www.w3.org/2000/svg">
<path d="M5.63647 0.015783C2.52836 0.015783 0 2.49372 0 5.53984C0 8.58597 2.52836 11.0639 5.63647 11.0639C6.58662 11.0639 7.52066 10.8429 8.30977 10.4168C8.37297 10.4913 8.44306 10.56 8.51912 10.622L10.1295 12.2003C10.2782 12.3643 10.4596 12.4967 10.6624 12.5896C10.8652 12.6824 11.0853 12.7336 11.309 12.74C11.5328 12.7465 11.7555 12.7081 11.9636 12.6271C12.1716 12.5461 12.3606 12.4243 12.5189 12.2692C12.6772 12.1141 12.8014 11.9289 12.884 11.725C12.9667 11.5211 13.0059 11.3028 12.9993 11.0835C12.9927 10.8642 12.9404 10.6485 12.8457 10.4498C12.751 10.251 12.6159 10.0733 12.4485 9.92753L10.8381 8.34922C10.7597 8.27231 10.6733 8.20355 10.5805 8.14404C11.0153 7.37068 11.289 6.47104 11.289 5.52406C11.289 2.47794 8.76068 0 5.65257 0L5.63647 0.015783ZM5.63647 1.59409C7.87495 1.59409 9.66252 3.346 9.66252 5.53984C9.66252 6.58152 9.27602 7.54429 8.59964 8.25452C8.58354 8.27031 8.56743 8.28609 8.55133 8.30187C8.47526 8.36382 8.40518 8.4325 8.34197 8.50705C7.63339 9.13837 6.66714 9.50138 5.62037 9.50138C3.38188 9.50138 1.59432 7.74947 1.59432 5.55563C1.59432 3.36179 3.38188 1.60987 5.62037 1.60987L5.63647 1.59409Z" fill="#959595"/>
</svg>
