<svg width="17" height="17" viewBox="0 0 17 17" fill="none" xmlns="http://www.w3.org/2000/svg">
<path d="M14.372 0.242652C14.0485 -0.0808841 13.533 -0.0808841 13.2095 0.242652L6.96396 6.48821C6.86526 6.58145 6.79946 6.70207 6.75559 6.83366L5.73568 10.2389C5.64793 10.5295 5.73019 10.842 5.94405 11.0559C6.09757 11.2149 6.31143 11.2971 6.52529 11.2971C6.60203 11.2971 6.6843 11.2862 6.76107 11.2642L10.1662 10.2443C10.2979 10.2005 10.4185 10.1347 10.5117 10.036L16.7573 3.79039C16.9108 3.63687 16.9985 3.4285 16.9985 3.20915C16.9985 2.98984 16.9108 2.78147 16.7573 2.62791L14.372 0.242652Z" fill="white"/>
<path d="M16.176 7.67822C15.7216 7.67822 15.3535 8.04663 15.3535 8.50072V13.9841C15.3535 14.7402 14.7385 15.355 13.9826 15.355H3.01586C2.26002 15.355 1.64502 14.7402 1.64502 13.9841V3.01734C1.64502 2.26123 2.26002 1.64649 3.01586 1.64649H8.49925C8.95361 1.64649 9.32176 1.27807 9.32176 0.823981C9.32176 0.369891 8.95361 0.00147331 8.49925 0.00147331H3.01586C1.35291 0.00147331 0 1.35465 0 3.01734V13.9841C0 15.6468 1.35291 17 3.01586 17H13.9826C15.6456 17 16.9985 15.6468 16.9985 13.9841V8.50072C16.9985 8.04663 16.6304 7.67822 16.176 7.67822Z" fill="white"/>
</svg>
