<svg width="28" height="28" viewBox="0 0 28 28" fill="none" xmlns="http://www.w3.org/2000/svg">
<path d="M7.77778 0H4.66667C4.05406 9.94901e-05 3.44751 0.121218 2.88184 0.3564C2.31618 0.591582 1.80255 0.936193 1.37044 1.37044C0.936193 1.80255 0.591582 2.31618 0.3564 2.88184C0.121218 3.44751 9.94901e-05 4.05406 0 4.66667V7.77778C0 9.06111 0.524222 10.2278 1.37044 11.074C1.80255 11.5083 2.31618 11.8529 2.88184 12.088C3.44751 12.3232 4.05406 12.4443 4.66667 12.4444H7.77778C8.39038 12.4443 8.99694 12.3232 9.5626 12.088C10.1283 11.8529 10.6419 11.5083 11.074 11.074C11.5083 10.6419 11.8529 10.1283 12.088 9.5626C12.3232 8.99694 12.4443 8.39038 12.4444 7.77778V4.66667C12.4443 4.05406 12.3232 3.44751 12.088 2.88184C11.8529 2.31618 11.5083 1.80255 11.074 1.37044C10.6419 0.936193 10.1283 0.591582 9.5626 0.3564C8.99694 0.121218 8.39038 9.94901e-05 7.77778 0ZM23.3333 0H20.2222C19.6096 9.94901e-05 19.0031 0.121218 18.4374 0.3564C17.8717 0.591582 17.3581 0.936193 16.926 1.37044C16.4917 1.80255 16.1471 2.31618 15.912 2.88184C15.6768 3.44751 15.5557 4.05406 15.5556 4.66667V7.77778C15.5556 9.06111 16.0798 10.2278 16.926 11.074C17.3581 11.5083 17.8717 11.8529 18.4374 12.088C19.0031 12.3232 19.6096 12.4443 20.2222 12.4444H23.3333C23.9459 12.4443 24.5525 12.3232 25.1182 12.088C25.6838 11.8529 26.1974 11.5083 26.6296 11.074C27.0638 10.6419 27.4084 10.1283 27.6436 9.5626C27.8788 8.99694 27.9999 8.39038 28 7.77778V4.66667C27.9999 4.05406 27.8788 3.44751 27.6436 2.88184C27.4084 2.31618 27.0638 1.80255 26.6296 1.37044C26.1974 0.936193 25.6838 0.591582 25.1182 0.3564C24.5525 0.121218 23.9459 9.94901e-05 23.3333 0ZM7.77778 15.5556H4.66667C4.05406 15.5557 3.44751 15.6768 2.88184 15.912C2.31618 16.1471 1.80255 16.4917 1.37044 16.926C0.936193 17.3581 0.591582 17.8717 0.3564 18.4374C0.121218 19.0031 9.94901e-05 19.6096 0 20.2222V23.3333C0 24.6167 0.524222 25.7833 1.37044 26.6296C1.80255 27.0638 2.31618 27.4084 2.88184 27.6436C3.44751 27.8788 4.05406 27.9999 4.66667 28H7.77778C8.39038 27.9999 8.99694 27.8788 9.5626 27.6436C10.1283 27.4084 10.6419 27.0638 11.074 26.6296C11.5083 26.1974 11.8529 25.6838 12.088 25.1182C12.3232 24.5525 12.4443 23.9459 12.4444 23.3333V20.2222C12.4443 19.6096 12.3232 19.0031 12.088 18.4374C11.8529 17.8717 11.5083 17.3581 11.074 16.926C10.6419 16.4917 10.1283 16.1471 9.5626 15.912C8.99694 15.6768 8.39038 15.5557 7.77778 15.5556ZM23.3333 15.5556H20.2222C19.6096 15.5557 19.0031 15.6768 18.4374 15.912C17.8717 16.1471 17.3581 16.4917 16.926 16.926C16.4917 17.3581 16.1471 17.8717 15.912 18.4374C15.6768 19.0031 15.5557 19.6096 15.5556 20.2222V23.3333C15.5556 24.6167 16.0798 25.7833 16.926 26.6296C17.3581 27.0638 17.8717 27.4084 18.4374 27.6436C19.0031 27.8788 19.6096 27.9999 20.2222 28H23.3333C23.9459 27.9999 24.5525 27.8788 25.1182 27.6436C25.6838 27.4084 26.1974 27.0638 26.6296 26.6296C27.0638 26.1974 27.4084 25.6838 27.6436 25.1182C27.8788 24.5525 27.9999 23.9459 28 23.3333V20.2222C27.9999 19.6096 27.8788 19.0031 27.6436 18.4374C27.4084 17.8717 27.0638 17.3581 26.6296 16.926C26.1974 16.4917 25.6838 16.1471 25.1182 15.912C24.5525 15.6768 23.9459 15.5557 23.3333 15.5556Z" fill="#89375F"/>
</svg>
