<svg width="43" height="91" viewBox="0 0 43 91" fill="none" xmlns="http://www.w3.org/2000/svg">
<path d="M5.14862 87.6286C5.68025 90.0277 8.06535 91.5621 10.4034 90.8057C19.5517 87.8464 27.6082 82.1338 33.4379 74.3979C40.1637 65.4729 43.4838 54.4406 42.8009 43.286C42.118 32.1313 37.4769 21.5865 29.7126 13.5485C22.9828 6.5816 14.2896 1.89443 4.8486 0.0731632C2.43573 -0.392305 0.255605 1.4215 0.0206138 3.8676C-0.214377 6.31369 1.58747 8.46102 3.98942 8.97992C11.3204 10.5636 18.0554 14.2892 23.3121 19.7311C29.6042 26.2449 33.3652 34.7902 33.9186 43.8298C34.4721 52.8693 31.7815 61.8096 26.331 69.0423C21.7774 75.0849 15.5472 79.6041 8.46415 82.0703C6.14344 82.8783 4.617 85.2294 5.14862 87.6286Z" fill="#EC6767"/>
</svg>
