<svg width="28" height="28" viewBox="0 0 28 28" fill="none" xmlns="http://www.w3.org/2000/svg">
<g clip-path="url(#clip0_7_94)">
<path d="M22.6684 15.1433C22.715 14.77 22.75 14.3967 22.75 14C22.75 13.6033 22.715 13.23 22.6684 12.8567L25.13 10.9316C25.3517 10.7566 25.41 10.4416 25.27 10.185L22.9367 6.14831C22.7967 5.89165 22.4817 5.79831 22.225 5.89165L19.32 7.05831C18.7134 6.59165 18.06 6.20665 17.3484 5.91498L16.905 2.82331C16.87 2.54331 16.625 2.33331 16.3334 2.33331H11.6667C11.375 2.33331 11.13 2.54331 11.095 2.82331L10.6517 5.91498C9.94002 6.20665 9.28668 6.60331 8.68002 7.05831L5.77501 5.89165C5.50668 5.78665 5.20335 5.89165 5.06335 6.14831L2.73001 10.185C2.57835 10.4416 2.64835 10.7566 2.87001 10.9316L5.33168 12.8567C5.28501 13.23 5.25001 13.615 5.25001 14C5.25001 14.385 5.28501 14.77 5.33168 15.1433L2.87001 17.0683C2.64835 17.2433 2.59001 17.5583 2.73001 17.815L5.06335 21.8517C5.20335 22.1083 5.51835 22.2017 5.77501 22.1083L8.68002 20.9417C9.28668 21.4083 9.94002 21.7933 10.6517 22.085L11.095 25.1767C11.13 25.4567 11.375 25.6667 11.6667 25.6667H16.3334C16.625 25.6667 16.87 25.4567 16.905 25.1767L17.3484 22.085C18.06 21.7933 18.7134 21.3967 19.32 20.9417L22.225 22.1083C22.4934 22.2133 22.7967 22.1083 22.9367 21.8517L25.27 17.815C25.41 17.5583 25.3517 17.2433 25.13 17.0683L22.6684 15.1433ZM14 18.0833C11.7484 18.0833 9.91668 16.2517 9.91668 14C9.91668 11.7483 11.7484 9.91665 14 9.91665C16.2517 9.91665 18.0834 11.7483 18.0834 14C18.0834 16.2517 16.2517 18.0833 14 18.0833Z" fill="white"/>
</g>
<defs>
<clipPath id="clip0_7_94">
<rect width="27.6602" height="27.6602" fill="white" transform="scale(1.01229)"/>
</clipPath>
</defs>
</svg>
