<svg width="28" height="28" viewBox="0 0 28 28" fill="none" xmlns="http://www.w3.org/2000/svg">
<path d="M26.3017 4.00159H24.5856V6.23049C24.5856 6.46021 24.4914 6.68052 24.3238 6.84296C24.1562 7.00539 23.9288 7.09665 23.6918 7.09665C23.4547 7.09665 23.2274 7.00539 23.0597 6.84296C22.8921 6.68052 22.798 6.46021 22.798 6.23049V4.00159H14.8967V6.23049C14.8967 6.46021 14.8026 6.68052 14.6349 6.84296C14.4673 7.00539 14.24 7.09665 14.0029 7.09665C13.7659 7.09665 13.5385 7.00539 13.3709 6.84296C13.2033 6.68052 13.1091 6.46021 13.1091 6.23049V4.00159H5.22577V6.23049C5.22577 6.46021 5.1316 6.68052 4.96398 6.84296C4.79636 7.00539 4.56902 7.09665 4.33197 7.09665C4.09492 7.09665 3.86757 7.00539 3.69995 6.84296C3.53233 6.68052 3.43817 6.46021 3.43817 6.23049V4.00159H1.69823C1.24783 4.00159 0.815879 4.17497 0.497399 4.4836C0.17892 4.79223 0 5.21082 0 5.64728L0 26.3542C0.0015704 26.7902 0.180995 27.2079 0.499134 27.5162C0.817274 27.8245 1.24831 27.9983 1.69823 27.9999H26.3017C26.5247 27.9999 26.7455 27.9573 26.9515 27.8746C27.1576 27.7919 27.3448 27.6707 27.5025 27.5178C27.6602 27.365 27.7853 27.1836 27.8706 26.9839C27.956 26.7843 27.9999 26.5703 27.9999 26.3542V5.65883C28.0023 5.44153 27.96 5.22595 27.8757 5.0246C27.7913 4.82325 27.6665 4.64016 27.5085 4.48596C27.3505 4.33176 27.1624 4.20954 26.9553 4.12639C26.7481 4.04323 26.5259 4.00081 26.3017 4.00159ZM21.8207 12.0337L12.3702 21.2034C12.2875 21.2841 12.1891 21.3481 12.0807 21.3918C11.9723 21.4354 11.856 21.4577 11.7386 21.4575C11.5018 21.4567 11.2748 21.3654 11.107 21.2034L6.17916 16.428C6.01795 16.2637 5.92949 16.0448 5.93272 15.818C5.93595 15.5913 6.03061 15.3748 6.19644 15.2149C6.36227 15.0549 6.58612 14.9642 6.82008 14.9622C7.05405 14.9601 7.27956 15.0469 7.44836 15.2039L11.7386 19.3614L20.5575 10.8211C20.7269 10.6681 20.951 10.5848 21.1826 10.5888C21.4141 10.5927 21.6351 10.6836 21.7988 10.8423C21.9626 11.001 22.0564 11.2151 22.0605 11.4395C22.0646 11.6639 21.9786 11.8811 21.8207 12.0453V12.0337Z" fill="#C1C1C1"/>
<path d="M5.22574 0.877703V4.00163H3.43813V0.866155C3.43813 0.75241 3.46125 0.639778 3.50617 0.534692C3.55109 0.429605 3.61692 0.334121 3.69992 0.253691C3.78292 0.173261 3.88145 0.10946 3.98989 0.0659321C4.09833 0.0224038 4.21456 1.82845e-08 4.33194 1.82845e-08C4.44931 1.82845e-08 4.56554 0.0224038 4.67398 0.0659321C4.78242 0.10946 4.88095 0.173261 4.96395 0.253691C5.04695 0.334121 5.11278 0.429605 5.1577 0.534692C5.20262 0.639778 5.22574 0.75241 5.22574 0.866155V0.877703ZM14.8967 0.877703V4.00163H13.1091V0.866155C13.1091 0.75241 13.1322 0.639778 13.1771 0.534692C13.222 0.429605 13.2879 0.334121 13.3709 0.253691C13.4539 0.173261 13.5524 0.10946 13.6608 0.0659321C13.7693 0.0224038 13.8855 0 14.0029 0C14.1203 0 14.2365 0.0224038 14.3449 0.0659321C14.4534 0.10946 14.5519 0.173261 14.6349 0.253691C14.7179 0.334121 14.7837 0.429605 14.8287 0.534692C14.8736 0.639778 14.8967 0.75241 14.8967 0.866155V0.877703ZM24.5855 0.877703V4.00163H22.7979V0.866155C22.7979 0.636436 22.8921 0.416126 23.0597 0.253691C23.2273 0.0912554 23.4547 3.6569e-08 23.6917 3.6569e-08C23.9288 3.6569e-08 24.1561 0.0912554 24.3237 0.253691C24.4914 0.416126 24.5855 0.636436 24.5855 0.866155V0.877703Z" fill="#C1C1C1"/>
</svg>
