<svg width="32" height="32" viewBox="0 0 32 32" fill="none" xmlns="http://www.w3.org/2000/svg">
<path d="M26.7333 14.6667H5.26667C4.56711 14.6667 4 15.2338 4 15.9333V16.0667C4 16.7662 4.56711 17.3333 5.26667 17.3333H26.7333C27.4329 17.3333 28 16.7662 28 16.0667V15.9333C28 15.2338 27.4329 14.6667 26.7333 14.6667Z" fill="white"/>
<path d="M26.7333 21.3335H5.26667C4.56711 21.3335 4 21.9006 4 22.6001V22.7335C4 23.433 4.56711 24.0001 5.26667 24.0001H26.7333C27.4329 24.0001 28 23.433 28 22.7335V22.6001C28 21.9006 27.4329 21.3335 26.7333 21.3335Z" fill="white"/>
<path d="M26.7333 8.00025H5.26667C4.56711 8.00025 4 8.56736 4 9.26692V9.40025C4 10.0998 4.56711 10.6669 5.26667 10.6669H26.7333C27.4329 10.6669 28 10.0998 28 9.40025V9.26692C28 8.56736 27.4329 8.00025 26.7333 8.00025Z" fill="white"/>
</svg>
