<svg width="31" height="31" viewBox="0 0 31 31" fill="none" xmlns="http://www.w3.org/2000/svg">
<g clip-path="url(#clip0_1_109)">
<path d="M25.0971 16.7659C25.1488 16.3525 25.1875 15.9392 25.1875 15.5C25.1875 15.0609 25.1488 14.6475 25.0971 14.2342L27.8225 12.103C28.0679 11.9092 28.1325 11.5605 27.9775 11.2763L25.3942 6.80712C25.2392 6.52295 24.8904 6.41962 24.6063 6.52295L21.39 7.81462C20.7183 7.29795 19.995 6.8717 19.2071 6.54879L18.7163 3.12587C18.6775 2.81587 18.4063 2.58337 18.0833 2.58337H12.9167C12.5938 2.58337 12.3225 2.81587 12.2838 3.12587L11.7929 6.54879C11.005 6.8717 10.2817 7.31087 9.61 7.81462L6.39375 6.52295C6.09667 6.4067 5.76083 6.52295 5.60583 6.80712L3.0225 11.2763C2.85458 11.5605 2.93208 11.9092 3.1775 12.103L5.90292 14.2342C5.85125 14.6475 5.8125 15.0738 5.8125 15.5C5.8125 15.9263 5.85125 16.3525 5.90292 16.7659L3.1775 18.8971C2.93208 19.0909 2.8675 19.4396 3.0225 19.7238L5.60583 24.193C5.76083 24.4771 6.10958 24.5805 6.39375 24.4771L9.61 23.1855C10.2817 23.7021 11.005 24.1284 11.7929 24.4513L12.2838 27.8742C12.3225 28.1842 12.5938 28.4167 12.9167 28.4167H18.0833C18.4063 28.4167 18.6775 28.1842 18.7163 27.8742L19.2071 24.4513C19.995 24.1284 20.7183 23.6892 21.39 23.1855L24.6063 24.4771C24.9033 24.5934 25.2392 24.4771 25.3942 24.193L27.9775 19.7238C28.1325 19.4396 28.0679 19.0909 27.8225 18.8971L25.0971 16.7659ZM15.5 20.0209C13.0071 20.0209 10.9792 17.993 10.9792 15.5C10.9792 13.0071 13.0071 10.9792 15.5 10.9792C17.9929 10.9792 20.0208 13.0071 20.0208 15.5C20.0208 17.993 17.9929 20.0209 15.5 20.0209Z" fill="white"/>
</g>
<defs>
<clipPath id="clip0_1_109">
<rect width="30.9353" height="30.9353" fill="white" transform="scale(1.00209)"/>
</clipPath>
</defs>
</svg>
