<svg width="32" height="32" viewBox="0 0 32 32" fill="none" xmlns="http://www.w3.org/2000/svg">
<path d="M30.0591 4.57295H28.0978V7.12027C28.0978 7.38281 27.9902 7.63459 27.7986 7.82023C27.6071 8.00587 27.3472 8.11016 27.0763 8.11016C26.8054 8.11016 26.5456 8.00587 26.354 7.82023C26.1625 7.63459 26.0548 7.38281 26.0548 7.12027V4.57295H17.0249V7.12027C17.0249 7.38281 16.9172 7.63459 16.7257 7.82023C16.5341 8.00587 16.2743 8.11016 16.0034 8.11016C15.7324 8.11016 15.4726 8.00587 15.2811 7.82023C15.0895 7.63459 14.9819 7.38281 14.9819 7.12027V4.57295H5.97232V7.12027C5.97232 7.38281 5.8647 7.63459 5.67313 7.82023C5.48156 8.00587 5.22174 8.11016 4.95083 8.11016C4.67991 8.11016 4.42009 8.00587 4.22852 7.82023C4.03696 7.63459 3.92934 7.38281 3.92934 7.12027V4.57295H1.94083C1.42609 4.57295 0.932434 4.7711 0.568457 5.12382C0.20448 5.47654 0 5.95492 0 6.45374L0 30.1188C0.00179474 30.6171 0.206851 31.0944 0.57044 31.4468C0.934028 31.7991 1.42664 31.9978 1.94083 31.9996H30.0591C30.314 31.9996 30.5663 31.9509 30.8018 31.8564C31.0373 31.7619 31.2512 31.6233 31.4315 31.4487C31.6117 31.274 31.7546 31.0667 31.8522 30.8385C31.9497 30.6103 31.9999 30.3658 31.9999 30.1188V6.46694C32.0026 6.2186 31.9544 5.97222 31.858 5.7421C31.7616 5.51199 31.6189 5.30274 31.4383 5.12652C31.2577 4.95029 31.0428 4.8106 30.806 4.71557C30.5693 4.62054 30.3154 4.57206 30.0591 4.57295ZM24.938 13.7525L14.1374 24.2322C14.0429 24.3245 13.9304 24.3976 13.8065 24.4474C13.6826 24.4973 13.5497 24.5228 13.4156 24.5226C13.1449 24.5216 12.8855 24.4173 12.6937 24.2322L7.06191 18.7746C6.87766 18.5868 6.77657 18.3366 6.78026 18.0775C6.78395 17.8184 6.89213 17.571 7.08165 17.3882C7.27118 17.2054 7.527 17.1017 7.79439 17.0993C8.06178 17.097 8.3195 17.1961 8.51243 17.3756L13.4156 22.127L23.4943 12.3667C23.6879 12.1918 23.9441 12.0967 24.2087 12.1012C24.4733 12.1057 24.7258 12.2096 24.913 12.391C25.1001 12.5723 25.2073 12.817 25.212 13.0735C25.2167 13.3299 25.1184 13.5781 24.938 13.7657V13.7525Z" fill="#C1C1C1"/>
<path d="M5.97235 1.00309V4.5733H3.92936V0.989892C3.92936 0.859898 3.95578 0.731176 4.00712 0.611077C4.05845 0.490978 4.1337 0.381853 4.22855 0.289933C4.3234 0.198013 4.43601 0.125098 4.55995 0.0753511C4.68388 0.0256043 4.81671 2.08966e-08 4.95085 2.08966e-08C5.085 2.08966e-08 5.21783 0.0256043 5.34176 0.0753511C5.46569 0.125098 5.5783 0.198013 5.67316 0.289933C5.76801 0.381853 5.84325 0.490978 5.89459 0.611077C5.94592 0.731176 5.97235 0.859898 5.97235 0.989892V1.00309ZM17.0249 1.00309V4.5733H14.9819V0.989892C14.9819 0.859898 15.0083 0.731176 15.0597 0.611077C15.111 0.490978 15.1862 0.381853 15.2811 0.289933C15.3759 0.198013 15.4885 0.125098 15.6125 0.0753511C15.7364 0.0256043 15.8692 0 16.0034 0C16.1375 0 16.2704 0.0256043 16.3943 0.0753511C16.5182 0.125098 16.6308 0.198013 16.7257 0.289933C16.8205 0.381853 16.8958 0.490978 16.9471 0.611077C16.9985 0.731176 17.0249 0.859898 17.0249 0.989892V1.00309ZM28.0978 1.00309V4.5733H26.0549V0.989892C26.0549 0.727357 26.1625 0.475574 26.3541 0.289933C26.5456 0.104292 26.8054 4.17932e-08 27.0764 4.17932e-08C27.3473 4.17932e-08 27.6071 0.104292 27.7987 0.289933C27.9902 0.475574 28.0978 0.727357 28.0978 0.989892V1.00309Z" fill="#C1C1C1"/>
</svg>
