<svg width="28" height="28" viewBox="0 0 28 28" fill="none" xmlns="http://www.w3.org/2000/svg">
<g clip-path="url(#clip0_0_672)">
<path d="M14.0002 11.3401C16.8997 11.3401 19.2502 8.98958 19.2502 6.09008C19.2502 3.19059 16.8997 0.840082 14.0002 0.840082C11.1007 0.840082 8.75017 3.19059 8.75017 6.09008C8.75017 8.98958 11.1007 11.3401 14.0002 11.3401Z" fill="#C1C1C1"/>
<path d="M27.0026 23.4849C26.458 21.0054 25.2093 18.7358 23.4064 16.9486C22.9688 16.5095 22.4946 16.1085 21.9889 15.7499C19.6859 14.0224 16.8788 13.1001 14.0001 13.1249C10.4801 13.1069 7.09575 14.4814 4.5851 16.9486C2.78217 18.7358 1.53343 21.0054 0.988851 23.4849C0.894194 23.9233 0.899307 24.3774 1.00381 24.8136C1.10832 25.2498 1.30954 25.6569 1.5926 26.0049C1.88575 26.3603 2.25489 26.6454 2.67285 26.8393C3.09081 27.0331 3.54692 27.1307 4.0076 27.1249H23.9926C24.4546 27.1252 24.9108 27.0215 25.3273 26.8216C25.7439 26.6216 26.1101 26.3306 26.3989 25.9699C26.6768 25.626 26.8752 25.2248 26.9796 24.7951C27.0839 24.3654 27.0918 23.918 27.0026 23.4849Z" fill="#C1C1C1"/>
</g>
<defs>
<clipPath id="clip0_0_672">
<rect width="27.512" height="27.512" fill="white" transform="scale(1.01774)"/>
</clipPath>
</defs>
</svg>
