<svg width="66" height="85" viewBox="0 0 66 85" fill="none" xmlns="http://www.w3.org/2000/svg">
<path fill-rule="evenodd" clip-rule="evenodd" d="M14.9573 18.2143C14.9573 8.15481 22.9957 0 32.9116 0C42.8274 0 50.8658 8.15481 50.8658 18.2143C50.8658 28.2738 42.8274 36.4286 32.9116 36.4286C22.9957 36.4286 14.9573 28.2738 14.9573 18.2143Z" fill="#89375F"/>
<path fill-rule="evenodd" clip-rule="evenodd" d="M0.000446594 75.3073C0.309021 57.1344 14.9254 42.5 32.9116 42.5C50.8982 42.5 65.5148 57.1351 65.8227 75.3086C65.8431 76.5138 65.1587 77.6171 64.0788 78.1199C54.5872 82.5382 44.0293 85 32.9128 85C21.7953 85 11.2366 82.5378 1.7443 78.1186C0.664377 77.6159 -0.0200185 76.5125 0.000446594 75.3073Z" fill="#89375F"/>
</svg>
