<svg width="56" height="24" viewBox="0 0 56 24" fill="none" xmlns="http://www.w3.org/2000/svg">
<path d="M4.47757 0.42757C2.93694 1.05573 1.04077 2.68323 0.477843 3.79678C-0.0258265 4.82467 -0.173965 6.39507 0.240822 6.65204C0.774119 6.96612 2.52215 5.73836 4.35906 3.76823C6.2256 1.76954 7.49959 0.827306 8.32916 0.827306C8.53656 0.827306 8.09214 1.19849 7.35145 1.65533C6.61076 2.11217 5.57379 3.08296 5.07012 3.79678C4.00353 5.28152 2.5814 6.39507 1.42593 6.68059C0.951885 6.7948 0.596354 6.99467 0.596354 7.13744C0.596354 7.56573 2.49252 7.8798 3.70725 7.62283C5.6923 7.19454 8.80321 4.82467 8.59581 3.85388C8.56618 3.71112 8.71432 3.51125 8.92172 3.36849C9.12911 3.25428 9.27725 2.74033 9.27725 2.22639C9.27725 0.313359 6.87741 -0.600325 4.47757 0.42757Z" fill="white"/>
<path d="M24.2984 11.5345V22.8128H26.8167H29.335V20.186V17.5306L32.0904 20.186L34.8162 22.8128H37.9271H41.038L37.3938 19.3008L33.7792 15.8174L37.0975 12.591L40.4454 9.39309H37.1864H33.9273L31.646 11.5916L29.335 13.8187V7.02322V0.256251H26.8167H24.2984V11.5345Z" fill="white"/>
<path d="M42.786 3.22574C42.6972 3.4256 42.6675 4.16797 42.7268 4.85324L42.8157 6.10955L48.3857 6.19521L53.926 6.25231V4.53916V2.826H48.4449C44.0304 2.826 42.9046 2.91166 42.786 3.22574Z" fill="white"/>
<path d="M15.0249 9.22177C14.4027 9.45019 13.662 9.82138 13.3658 10.0784C12.6843 10.678 12.4473 10.6494 12.4473 9.96414C12.4473 9.45019 12.2399 9.39309 10.0771 9.39309H7.7069V16.103V22.8128H10.0475H12.4177L12.5066 18.5014L12.5955 14.1899L13.5732 13.3619C15.2323 11.9343 17.1877 12.4482 17.7803 14.4755C17.9284 15.0465 18.0766 17.1594 18.0766 19.1581V22.8128H20.4468H22.817V17.8732C22.817 13.2191 22.7577 12.8194 22.1355 11.6487C20.9801 9.53585 17.484 8.36519 15.0249 9.22177Z" fill="white"/>
<path d="M44.4749 9.25031C42.8157 9.76426 41.0973 11.3632 40.2678 13.2191C39.1123 15.846 39.853 19.5007 41.9862 21.4423C44.2675 23.5552 48.445 23.6979 50.7559 21.7278C51.23 21.3281 51.2596 21.3566 51.2596 22.0419C51.2596 22.8128 51.2596 22.8128 53.6298 22.8128H56V16.1029V9.39308H53.6298C51.4374 9.39308 51.2596 9.42163 51.2596 9.99268V10.5637L50.43 9.99268C49.5708 9.42163 47.4969 8.82202 46.371 8.85058C46.0451 8.85058 45.1859 9.05045 44.4749 9.25031ZM49.4819 13.2477C50.6967 13.8473 51.2596 14.761 51.2596 16.1886C51.2596 17.1879 51.0818 17.5877 50.4004 18.2729C49.6597 18.9582 49.2746 19.101 48.0598 19.101C46.8747 19.101 46.4599 18.9582 45.8377 18.3586C44.2379 16.8168 44.6526 14.0472 46.5784 13.2477C47.8524 12.7337 48.4154 12.7337 49.4819 13.2477Z" fill="white"/>
<path d="M0.892612 16.103V22.8128H3.26282H5.63303V16.103V9.39309H3.26282H0.892612V16.103Z" fill="white"/>
</svg>
