<svg width="27" height="27" viewBox="0 0 27 27" fill="none" xmlns="http://www.w3.org/2000/svg">
<path fill-rule="evenodd" clip-rule="evenodd" d="M22.5 5.62502H21.1837C20.9513 4.9663 20.5203 4.39589 19.95 3.99241C19.3798 3.58894 18.6985 3.37227 18 3.37227C17.3014 3.37227 16.6201 3.58894 16.0499 3.99241C15.4797 4.39589 15.0486 4.9663 14.8162 5.62502H4.49995C4.20159 5.62502 3.91544 5.74355 3.70446 5.95453C3.49348 6.16551 3.37495 6.45166 3.37495 6.75002C3.37495 7.04839 3.49348 7.33454 3.70446 7.54552C3.91544 7.7565 4.20159 7.87503 4.49995 7.87503H14.8162C15.0486 8.53375 15.4797 9.10416 16.0499 9.50764C16.6201 9.91111 17.3014 10.1278 18 10.1278C18.6985 10.1278 19.3798 9.91111 19.95 9.50764C20.5203 9.10416 20.9513 8.53375 21.1837 7.87503H22.5C22.7983 7.87503 23.0845 7.7565 23.2955 7.54552C23.5064 7.33454 23.625 7.04839 23.625 6.75002C23.625 6.45166 23.5064 6.16551 23.2955 5.95453C23.0845 5.74355 22.7983 5.62502 22.5 5.62502ZM18 7.87503C18.2983 7.87503 18.5845 7.7565 18.7955 7.54552C19.0064 7.33454 19.125 7.04839 19.125 6.75002C19.125 6.45166 19.0064 6.16551 18.7955 5.95453C18.5845 5.74355 18.2983 5.62502 18 5.62502C17.7016 5.62502 17.4154 5.74355 17.2045 5.95453C16.9935 6.16551 16.875 6.45166 16.875 6.75002C16.875 7.04839 16.9935 7.33454 17.2045 7.54552C17.4154 7.7565 17.7016 7.87503 18 7.87503ZM3.37495 13.5C3.37495 13.2017 3.49348 12.9155 3.70446 12.7045C3.91544 12.4936 4.20159 12.375 4.49995 12.375H5.81621C6.04863 11.7163 6.47966 11.1459 7.04988 10.7424C7.6201 10.3389 8.30143 10.1223 8.99996 10.1223C9.69848 10.1223 10.3798 10.3389 10.95 10.7424C11.5203 11.1459 11.9513 11.7163 12.1837 12.375H22.5C22.7983 12.375 23.0845 12.4936 23.2955 12.7045C23.5064 12.9155 23.625 13.2017 23.625 13.5C23.625 13.7984 23.5064 14.0845 23.2955 14.2955C23.0845 14.5065 22.7983 14.625 22.5 14.625H12.1837C11.9513 15.2838 11.5203 15.8542 10.95 16.2576C10.3798 16.6611 9.69848 16.8778 8.99996 16.8778C8.30143 16.8778 7.6201 16.6611 7.04988 16.2576C6.47966 15.8542 6.04863 15.2838 5.81621 14.625H4.49995C4.20159 14.625 3.91544 14.5065 3.70446 14.2955C3.49348 14.0845 3.37495 13.7984 3.37495 13.5ZM8.99996 14.625C9.29833 14.625 9.58447 14.5065 9.79545 14.2955C10.0064 14.0845 10.125 13.7984 10.125 13.5C10.125 13.2017 10.0064 12.9155 9.79545 12.7045C9.58447 12.4936 9.29833 12.375 8.99996 12.375C8.70159 12.375 8.41544 12.4936 8.20446 12.7045C7.99348 12.9155 7.87496 13.2017 7.87496 13.5C7.87496 13.7984 7.99348 14.0845 8.20446 14.2955C8.41544 14.5065 8.70159 14.625 8.99996 14.625ZM4.49995 19.125C4.20159 19.125 3.91544 19.2436 3.70446 19.4545C3.49348 19.6655 3.37495 19.9517 3.37495 20.25C3.37495 20.5484 3.49348 20.8346 3.70446 21.0455C3.91544 21.2565 4.20159 21.375 4.49995 21.375H14.8162C15.0486 22.0338 15.4797 22.6042 16.0499 23.0076C16.6201 23.4111 17.3014 23.6278 18 23.6278C18.6985 23.6278 19.3798 23.4111 19.95 23.0076C20.5203 22.6042 20.9513 22.0338 21.1837 21.375H22.5C22.7983 21.375 23.0845 21.2565 23.2955 21.0455C23.5064 20.8346 23.625 20.5484 23.625 20.25C23.625 19.9517 23.5064 19.6655 23.2955 19.4545C23.0845 19.2436 22.7983 19.125 22.5 19.125H21.1837C20.9513 18.4663 20.5203 17.8959 19.95 17.4924C19.3798 17.0889 18.6985 16.8723 18 16.8723C17.3014 16.8723 16.6201 17.0889 16.0499 17.4924C15.4797 17.8959 15.0486 18.4663 14.8162 19.125H4.49995ZM19.125 20.25C19.125 20.5484 19.0064 20.8346 18.7955 21.0455C18.5845 21.2565 18.2983 21.375 18 21.375C17.7016 21.375 17.4154 21.2565 17.2045 21.0455C16.9935 20.8346 16.875 20.5484 16.875 20.25C16.875 19.9517 16.9935 19.6655 17.2045 19.4545C17.4154 19.2436 17.7016 19.125 18 19.125C18.2983 19.125 18.5845 19.2436 18.7955 19.4545C19.0064 19.6655 19.125 19.9517 19.125 20.25Z" fill="#B3638A"/>
</svg>
