<svg width="28" height="28" viewBox="0 0 28 28" fill="none" xmlns="http://www.w3.org/2000/svg">
<path fill-rule="evenodd" clip-rule="evenodd" d="M23.3333 5.83338H21.9683C21.7273 5.15026 21.2803 4.55872 20.6889 4.1403C20.0976 3.72189 19.391 3.49719 18.6666 3.49719C17.9422 3.49719 17.2357 3.72189 16.6443 4.1403C16.053 4.55872 15.606 5.15026 15.365 5.83338H4.66663C4.35721 5.83338 4.06047 5.9563 3.84168 6.17509C3.62288 6.39388 3.49997 6.69063 3.49997 7.00005C3.49997 7.30947 3.62288 7.60621 3.84168 7.82501C4.06047 8.0438 4.35721 8.16672 4.66663 8.16672H15.365C15.606 8.84984 16.053 9.44138 16.6443 9.85979C17.2357 10.2782 17.9422 10.5029 18.6666 10.5029C19.391 10.5029 20.0976 10.2782 20.6889 9.85979C21.2803 9.44138 21.7273 8.84984 21.9683 8.16672H23.3333C23.6427 8.16672 23.9395 8.0438 24.1583 7.82501C24.3771 7.60621 24.5 7.30947 24.5 7.00005C24.5 6.69063 24.3771 6.39388 24.1583 6.17509C23.9395 5.9563 23.6427 5.83338 23.3333 5.83338ZM18.6666 8.16672C18.9761 8.16672 19.2728 8.0438 19.4916 7.82501C19.7104 7.60621 19.8333 7.30947 19.8333 7.00005C19.8333 6.69063 19.7104 6.39388 19.4916 6.17509C19.2728 5.9563 18.9761 5.83338 18.6666 5.83338C18.3572 5.83338 18.0605 5.9563 17.8417 6.17509C17.6229 6.39388 17.5 6.69063 17.5 7.00005C17.5 7.30947 17.6229 7.60621 17.8417 7.82501C18.0605 8.0438 18.3572 8.16672 18.6666 8.16672ZM3.49997 14C3.49997 13.6906 3.62288 13.3939 3.84168 13.1751C4.06047 12.9563 4.35721 12.8334 4.66663 12.8334H6.03163C6.27267 12.1503 6.71966 11.5587 7.311 11.1403C7.90234 10.7219 8.6089 10.4972 9.3333 10.4972C10.0577 10.4972 10.7643 10.7219 11.3556 11.1403C11.9469 11.5587 12.3939 12.1503 12.635 12.8334H23.3333C23.6427 12.8334 23.9395 12.9563 24.1583 13.1751C24.3771 13.3939 24.5 13.6906 24.5 14C24.5 14.3095 24.3771 14.6062 24.1583 14.825C23.9395 15.0438 23.6427 15.1667 23.3333 15.1667H12.635C12.3939 15.8498 11.9469 16.4414 11.3556 16.8598C10.7643 17.2782 10.0577 17.5029 9.3333 17.5029C8.6089 17.5029 7.90234 17.2782 7.311 16.8598C6.71966 16.4414 6.27267 15.8498 6.03163 15.1667H4.66663C4.35721 15.1667 4.06047 15.0438 3.84168 14.825C3.62288 14.6062 3.49997 14.3095 3.49997 14ZM9.3333 15.1667C9.64272 15.1667 9.93947 15.0438 10.1583 14.825C10.3771 14.6062 10.5 14.3095 10.5 14C10.5 13.6906 10.3771 13.3939 10.1583 13.1751C9.93947 12.9563 9.64272 12.8334 9.3333 12.8334C9.02388 12.8334 8.72714 12.9563 8.50834 13.1751C8.28955 13.3939 8.16663 13.6906 8.16663 14C8.16663 14.3095 8.28955 14.6062 8.50834 14.825C8.72714 15.0438 9.02388 15.1667 9.3333 15.1667ZM4.66663 19.8334C4.35721 19.8334 4.06047 19.9563 3.84168 20.1751C3.62288 20.3939 3.49997 20.6906 3.49997 21.0001C3.49997 21.3095 3.62288 21.6062 3.84168 21.825C4.06047 22.0438 4.35721 22.1667 4.66663 22.1667H15.365C15.606 22.8498 16.053 23.4414 16.6443 23.8598C17.2357 24.2782 17.9422 24.5029 18.6666 24.5029C19.391 24.5029 20.0976 24.2782 20.6889 23.8598C21.2803 23.4414 21.7273 22.8498 21.9683 22.1667H23.3333C23.6427 22.1667 23.9395 22.0438 24.1583 21.825C24.3771 21.6062 24.5 21.3095 24.5 21.0001C24.5 20.6906 24.3771 20.3939 24.1583 20.1751C23.9395 19.9563 23.6427 19.8334 23.3333 19.8334H21.9683C21.7273 19.1503 21.2803 18.5587 20.6889 18.1403C20.0976 17.7219 19.391 17.4972 18.6666 17.4972C17.9422 17.4972 17.2357 17.7219 16.6443 18.1403C16.053 18.5587 15.606 19.1503 15.365 19.8334H4.66663ZM19.8333 21.0001C19.8333 21.3095 19.7104 21.6062 19.4916 21.825C19.2728 22.0438 18.9761 22.1667 18.6666 22.1667C18.3572 22.1667 18.0605 22.0438 17.8417 21.825C17.6229 21.6062 17.5 21.3095 17.5 21.0001C17.5 20.6906 17.6229 20.3939 17.8417 20.1751C18.0605 19.9563 18.3572 19.8334 18.6666 19.8334C18.9761 19.8334 19.2728 19.9563 19.4916 20.1751C19.7104 20.3939 19.8333 20.6906 19.8333 21.0001Z" fill="#B3638A"/>
</svg>
