<svg width="27" height="27" viewBox="0 0 27 27" fill="none" xmlns="http://www.w3.org/2000/svg">
<path fill-rule="evenodd" clip-rule="evenodd" d="M22.5 5.62503H21.1838C20.9513 4.9663 20.5203 4.39589 19.9501 3.99241C19.3799 3.58894 18.6986 3.37227 18 3.37227C17.3015 3.37227 16.6202 3.58894 16.05 3.99241C15.4797 4.39589 15.0487 4.9663 14.8163 5.62503H4.50003C4.20166 5.62503 3.91551 5.74355 3.70454 5.95453C3.49356 6.16551 3.37503 6.45166 3.37503 6.75003C3.37503 7.04839 3.49356 7.33454 3.70454 7.54552C3.91551 7.7565 4.20166 7.87502 4.50003 7.87502H14.8163C15.0487 8.53375 15.4797 9.10416 16.05 9.50764C16.6202 9.91111 17.3015 10.1278 18 10.1278C18.6986 10.1278 19.3799 9.91111 19.9501 9.50764C20.5203 9.10416 20.9513 8.53375 21.1838 7.87502H22.5C22.7984 7.87502 23.0845 7.7565 23.2955 7.54552C23.5065 7.33454 23.625 7.04839 23.625 6.75003C23.625 6.45166 23.5065 6.16551 23.2955 5.95453C23.0845 5.74355 22.7984 5.62503 22.5 5.62503ZM18 7.87502C18.2984 7.87502 18.5845 7.7565 18.7955 7.54552C19.0065 7.33454 19.125 7.04839 19.125 6.75003C19.125 6.45166 19.0065 6.16551 18.7955 5.95453C18.5845 5.74355 18.2984 5.62503 18 5.62503C17.7017 5.62503 17.4155 5.74355 17.2045 5.95453C16.9936 6.16551 16.875 6.45166 16.875 6.75003C16.875 7.04839 16.9936 7.33454 17.2045 7.54552C17.4155 7.7565 17.7017 7.87502 18 7.87502ZM3.37503 13.5C3.37503 13.2017 3.49356 12.9155 3.70454 12.7045C3.91551 12.4935 4.20166 12.375 4.50003 12.375H5.81628C6.04871 11.7163 6.47974 11.1459 7.04995 10.7424C7.62017 10.3389 8.3015 10.1223 9.00003 10.1223C9.69856 10.1223 10.3799 10.3389 10.9501 10.7424C11.5203 11.1459 11.9514 11.7163 12.1838 12.375H22.5C22.7984 12.375 23.0845 12.4935 23.2955 12.7045C23.5065 12.9155 23.625 13.2017 23.625 13.5C23.625 13.7984 23.5065 14.0845 23.2955 14.2955C23.0845 14.5065 22.7984 14.625 22.5 14.625H12.1838C11.9514 15.2837 11.5203 15.8542 10.9501 16.2576C10.3799 16.6611 9.69856 16.8778 9.00003 16.8778C8.3015 16.8778 7.62017 16.6611 7.04995 16.2576C6.47974 15.8542 6.04871 15.2837 5.81628 14.625H4.50003C4.20166 14.625 3.91551 14.5065 3.70454 14.2955C3.49356 14.0845 3.37503 13.7984 3.37503 13.5ZM9.00003 14.625C9.2984 14.625 9.58455 14.5065 9.79552 14.2955C10.0065 14.0845 10.125 13.7984 10.125 13.5C10.125 13.2017 10.0065 12.9155 9.79552 12.7045C9.58455 12.4935 9.2984 12.375 9.00003 12.375C8.70166 12.375 8.41551 12.4935 8.20453 12.7045C7.99356 12.9155 7.87503 13.2017 7.87503 13.5C7.87503 13.7984 7.99356 14.0845 8.20453 14.2955C8.41551 14.5065 8.70166 14.625 9.00003 14.625ZM4.50003 19.125C4.20166 19.125 3.91551 19.2435 3.70454 19.4545C3.49356 19.6655 3.37503 19.9517 3.37503 20.25C3.37503 20.5484 3.49356 20.8345 3.70454 21.0455C3.91551 21.2565 4.20166 21.375 4.50003 21.375H14.8163C15.0487 22.0337 15.4797 22.6042 16.05 23.0076C16.6202 23.4111 17.3015 23.6278 18 23.6278C18.6986 23.6278 19.3799 23.4111 19.9501 23.0076C20.5203 22.6042 20.9513 22.0337 21.1838 21.375H22.5C22.7984 21.375 23.0845 21.2565 23.2955 21.0455C23.5065 20.8345 23.625 20.5484 23.625 20.25C23.625 19.9517 23.5065 19.6655 23.2955 19.4545C23.0845 19.2435 22.7984 19.125 22.5 19.125H21.1838C20.9513 18.4663 20.5203 17.8959 19.9501 17.4924C19.3799 17.0889 18.6986 16.8723 18 16.8723C17.3015 16.8723 16.6202 17.0889 16.05 17.4924C15.4797 17.8959 15.0487 18.4663 14.8163 19.125H4.50003ZM19.125 20.25C19.125 20.5484 19.0065 20.8345 18.7955 21.0455C18.5845 21.2565 18.2984 21.375 18 21.375C17.7017 21.375 17.4155 21.2565 17.2045 21.0455C16.9936 20.8345 16.875 20.5484 16.875 20.25C16.875 19.9517 16.9936 19.6655 17.2045 19.4545C17.4155 19.2435 17.7017 19.125 18 19.125C18.2984 19.125 18.5845 19.2435 18.7955 19.4545C19.0065 19.6655 19.125 19.9517 19.125 20.25Z" fill="#B3638A"/>
</svg>
