<svg width="27" height="27" viewBox="0 0 27 27" fill="none" xmlns="http://www.w3.org/2000/svg">
<path d="M25.3624 3.8587H23.7075V6.00801C23.7075 6.22952 23.6167 6.44197 23.4551 6.5986C23.2935 6.75523 23.0742 6.84323 22.8457 6.84323C22.6171 6.84323 22.3979 6.75523 22.2362 6.5986C22.0746 6.44197 21.9838 6.22952 21.9838 6.00801V3.8587H14.3647V6.00801C14.3647 6.22952 14.2739 6.44197 14.1123 6.5986C13.9507 6.75523 13.7314 6.84323 13.5028 6.84323C13.2743 6.84323 13.055 6.75523 12.8934 6.5986C12.7318 6.44197 12.641 6.22952 12.641 6.00801V3.8587H5.03915V6.00801C5.03915 6.22952 4.94834 6.44197 4.78671 6.5986C4.62507 6.75523 4.40585 6.84323 4.17726 6.84323C3.94868 6.84323 3.72945 6.75523 3.56782 6.5986C3.40618 6.44197 3.31538 6.22952 3.31538 6.00801V3.8587H1.63758C1.20327 3.8587 0.786741 4.0259 0.479636 4.3235C0.17253 4.62111 0 5.02475 0 5.44563L0 25.413C0.00151431 25.8334 0.174531 26.2362 0.481309 26.5335C0.788087 26.8308 1.20373 26.9985 1.63758 26.9999H25.3624C25.5774 26.9999 25.7904 26.9589 25.989 26.8791C26.1877 26.7994 26.3682 26.6825 26.5203 26.5351C26.6724 26.3878 26.793 26.2128 26.8753 26.0203C26.9576 25.8278 26.9999 25.6214 26.9999 25.413V5.45676C27.0022 5.24723 26.9615 5.03934 26.8802 4.84518C26.7988 4.65102 26.6785 4.47447 26.5261 4.32578C26.3737 4.17709 26.1924 4.05923 25.9926 3.97904C25.7928 3.89886 25.5786 3.85795 25.3624 3.8587ZM21.0415 11.604L11.9285 20.4462C11.8487 20.524 11.7538 20.5858 11.6493 20.6278C11.5447 20.6699 11.4326 20.6914 11.3194 20.6912C11.091 20.6904 10.8722 20.6024 10.7103 20.4462L5.95849 15.8414C5.80303 15.6829 5.71774 15.4718 5.72085 15.2532C5.72396 15.0345 5.81524 14.8258 5.97515 14.6716C6.13506 14.5173 6.35091 14.4298 6.57652 14.4279C6.80213 14.4259 7.01958 14.5095 7.18236 14.6609L11.3194 18.67L19.8233 10.4347C19.9867 10.2872 20.2028 10.2068 20.4261 10.2107C20.6494 10.2145 20.8624 10.3021 21.0203 10.4552C21.1782 10.6082 21.2687 10.8146 21.2726 11.031C21.2766 11.2474 21.1937 11.4568 21.0415 11.6151V11.604Z" fill="#C1C1C1"/>
<path d="M5.03912 0.846358V3.85873H3.31536V0.835222C3.31536 0.725539 3.33765 0.61693 3.38096 0.515596C3.42428 0.414263 3.48776 0.322188 3.5678 0.244631C3.64783 0.167073 3.74284 0.105551 3.84741 0.0635775C3.95198 0.0216037 4.06406 1.76315e-08 4.17724 1.76315e-08C4.29042 1.76315e-08 4.4025 0.0216037 4.50707 0.0635775C4.61164 0.105551 4.70665 0.167073 4.78668 0.244631C4.86672 0.322188 4.9302 0.414263 4.97352 0.515596C5.01683 0.61693 5.03912 0.725539 5.03912 0.835222V0.846358ZM14.3647 0.846358V3.85873H12.6409V0.835222C12.6409 0.725539 12.6632 0.61693 12.7065 0.515596C12.7499 0.414263 12.8133 0.322188 12.8934 0.244631C12.9734 0.167073 13.0684 0.105551 13.173 0.0635775C13.2776 0.0216037 13.3896 0 13.5028 0C13.616 0 13.7281 0.0216037 13.8327 0.0635775C13.9372 0.105551 14.0322 0.167073 14.1123 0.244631C14.1923 0.322188 14.2558 0.414263 14.2991 0.515596C14.3424 0.61693 14.3647 0.725539 14.3647 0.835222V0.846358ZM23.7075 0.846358V3.85873H21.9838V0.835222C21.9838 0.613707 22.0746 0.401265 22.2362 0.244631C22.3978 0.0879964 22.6171 3.5263e-08 22.8456 3.5263e-08C23.0742 3.5263e-08 23.2934 0.0879964 23.4551 0.244631C23.6167 0.401265 23.7075 0.613707 23.7075 0.835222V0.846358Z" fill="#C1C1C1"/>
</svg>
