<svg width="64" height="67" viewBox="0 0 64 67" fill="none" xmlns="http://www.w3.org/2000/svg">
<path d="M64 22.2417V64.8096C64 65.2801 63.8017 65.7312 63.4487 66.0638C63.0957 66.3964 62.6169 66.5833 62.1177 66.5833H50.8235C50.3243 66.5833 49.8455 66.3964 49.4925 66.0638C49.1395 65.7312 48.9412 65.2801 48.9412 64.8096V22.2417C48.9412 21.7713 49.1395 21.3202 49.4925 20.9876C49.8455 20.6549 50.3243 20.4681 50.8235 20.4681H62.1177C62.6169 20.4681 63.0957 20.6549 63.4487 20.9876C63.8017 21.3202 64 21.7713 64 22.2417ZM37.6471 34.6574H26.3529C25.8537 34.6574 25.3749 34.8442 25.0219 35.1769C24.6689 35.5095 24.4706 35.9606 24.4706 36.431V64.8096C24.4706 65.2801 24.6689 65.7312 25.0219 66.0638C25.3749 66.3964 25.8537 66.5833 26.3529 66.5833H37.6471C38.1463 66.5833 38.6251 66.3964 38.9781 66.0638C39.3311 65.7312 39.5294 65.2801 39.5294 64.8096V36.431C39.5294 35.9606 39.3311 35.5095 38.9781 35.1769C38.6251 34.8442 38.1463 34.6574 37.6471 34.6574ZM13.1765 48.8467H1.88235C1.38312 48.8467 0.904338 49.0335 0.551329 49.3662C0.198319 49.6988 0 50.1499 0 50.6203V64.8096C0 65.2801 0.198319 65.7312 0.551329 66.0638C0.904338 66.3964 1.38312 66.5833 1.88235 66.5833H13.1765C13.6757 66.5833 14.1545 66.3964 14.5075 66.0638C14.8605 65.7312 15.0588 65.2801 15.0588 64.8096V50.6203C15.0588 50.1499 14.8605 49.6988 14.5075 49.3662C14.1545 49.0335 13.6757 48.8467 13.1765 48.8467ZM49.8824 11.4579L48.9412 0.815885C48.9622 0.698474 48.9622 0.578563 48.9412 0.461152C48.9412 0.461152 48.9412 0.461152 48.9412 0.283786L48.6776 0H48.4141H47.5859L36.48 1.88008C36.2348 1.91869 36.0001 2.00269 35.7895 2.12723C35.579 2.25177 35.3966 2.41438 35.2531 2.60567C35.1096 2.79697 35.0077 3.01315 34.9534 3.24175C34.899 3.47035 34.8933 3.70683 34.9365 3.93753C35.0235 4.34759 35.2586 4.71659 35.6018 4.98175C35.945 5.2469 36.375 5.39185 36.8188 5.39194H37.12L43.6329 4.29226C39.4583 9.10606 34.2522 13.0352 28.3551 15.8227C22.458 18.6101 16.0028 20.1931 9.41177 20.4681C8.91253 20.4681 8.43375 20.6549 8.08074 20.9876C7.72773 21.3202 7.52941 21.7713 7.52941 22.2417C7.52941 22.7121 7.72773 23.1633 8.08074 23.4959C8.43375 23.8285 8.91253 24.0154 9.41177 24.0154C16.4784 23.5989 23.3681 21.7589 29.6158 18.6196C35.8634 15.4804 41.3238 11.1148 45.6282 5.81761L46.1553 11.7416C46.1927 12.181 46.4023 12.5915 46.7433 12.8931C47.0843 13.1948 47.5323 13.366 48 13.3734H48.1882C48.6813 13.3284 49.1357 13.1021 49.4528 12.7435C49.77 12.3849 49.9243 11.923 49.8824 11.4579Z" fill="white"/>
</svg>
