<svg width="25" height="25" viewBox="0 0 25 25" fill="none" xmlns="http://www.w3.org/2000/svg">
<g clip-path="url(#clip0_19_46)">
<path d="M20.2396 13.5208C20.2812 13.1875 20.3125 12.8541 20.3125 12.5C20.3125 12.1458 20.2812 11.8125 20.2396 11.4791L22.4375 9.76039C22.6354 9.60414 22.6875 9.32289 22.5625 9.09373L20.4792 5.48956C20.3542 5.2604 20.0729 5.17706 19.8437 5.2604L17.25 6.30206C16.7083 5.8854 16.125 5.54165 15.4896 5.28123L15.0938 2.52082C15.0625 2.27082 14.8438 2.08332 14.5833 2.08332H10.4167C10.1563 2.08332 9.93751 2.27082 9.90626 2.52082L9.51043 5.28123C8.87501 5.54165 8.29168 5.89581 7.75001 6.30206L5.15627 5.2604C4.91668 5.16665 4.64585 5.2604 4.52085 5.48956L2.43752 9.09373C2.3021 9.32289 2.3646 9.60414 2.56252 9.76039L4.76043 11.4791C4.71877 11.8125 4.68752 12.1562 4.68752 12.5C4.68752 12.8437 4.71877 13.1875 4.76043 13.5208L2.56252 15.2396C2.3646 15.3958 2.31252 15.6771 2.43752 15.9062L4.52085 19.5104C4.64585 19.7395 4.9271 19.8229 5.15627 19.7395L7.75001 18.6979C8.29168 19.1145 8.87501 19.4583 9.51043 19.7187L9.90626 22.4791C9.93751 22.7291 10.1563 22.9166 10.4167 22.9166H14.5833C14.8438 22.9166 15.0625 22.7291 15.0938 22.4791L15.4896 19.7187C16.125 19.4583 16.7083 19.1041 17.25 18.6979L19.8437 19.7395C20.0833 19.8333 20.3542 19.7395 20.4792 19.5104L22.5625 15.9062C22.6875 15.6771 22.6354 15.3958 22.4375 15.2396L20.2396 13.5208ZM12.5 16.1458C10.4896 16.1458 8.85418 14.5104 8.85418 12.5C8.85418 10.4896 10.4896 8.85414 12.5 8.85414C14.5104 8.85414 16.1458 10.4896 16.1458 12.5C16.1458 14.5104 14.5104 16.1458 12.5 16.1458Z" fill="white"/>
</g>
<defs>
<clipPath id="clip0_19_46">
<rect width="24.7458" height="24.7458" fill="white" transform="scale(1.01027)"/>
</clipPath>
</defs>
</svg>
