<svg width="29" height="28" viewBox="0 0 29 28" fill="none" xmlns="http://www.w3.org/2000/svg">
<path d="M27.241 3.98094H25.4636V6.19833C25.4636 6.42686 25.3661 6.64603 25.1925 6.80763C25.0189 6.96922 24.7834 7.06001 24.5379 7.06001C24.2924 7.06001 24.0569 6.96922 23.8833 6.80763C23.7097 6.64603 23.6122 6.42686 23.6122 6.19833V3.98094H15.4288V6.19833C15.4288 6.42686 15.3312 6.64603 15.1576 6.80763C14.984 6.96922 14.7486 7.06001 14.503 7.06001C14.2575 7.06001 14.0221 6.96922 13.8484 6.80763C13.6748 6.64603 13.5773 6.42686 13.5773 6.19833V3.98094H5.41241V6.19833C5.41241 6.42686 5.31488 6.64603 5.14127 6.80763C4.96766 6.96922 4.7322 7.06001 4.48668 7.06001C4.24117 7.06001 4.0057 6.96922 3.8321 6.80763C3.65849 6.64603 3.56096 6.42686 3.56096 6.19833V3.98094H1.75888C1.29239 3.98094 0.845017 4.15343 0.515164 4.46047C0.18531 4.7675 0 5.18392 0 5.61813L0 26.218C0.00162648 26.6517 0.187459 27.0673 0.516961 27.374C0.846462 27.6807 1.2929 27.8536 1.75888 27.8552H27.241C27.472 27.8552 27.7007 27.8128 27.9141 27.7305C28.1275 27.6483 28.3214 27.5277 28.4847 27.3756C28.6481 27.2236 28.7776 27.0431 28.866 26.8445C28.9544 26.6459 28.9999 26.433 28.9999 26.218V5.62962C29.0024 5.41345 28.9586 5.19897 28.8713 4.99867C28.7839 4.79836 28.6546 4.61621 28.491 4.46281C28.3273 4.30941 28.1325 4.18782 27.918 4.10509C27.7034 4.02237 27.4733 3.98017 27.241 3.98094ZM22.6 11.9716L12.812 21.0939C12.7264 21.1742 12.6244 21.2378 12.5121 21.2812C12.3999 21.3246 12.2794 21.3468 12.1579 21.3466C11.9126 21.3458 11.6775 21.255 11.5037 21.0939L6.39985 16.3431C6.23288 16.1797 6.14126 15.9619 6.14461 15.7363C6.14795 15.5108 6.24599 15.2954 6.41774 15.1363C6.5895 14.9772 6.82134 14.8869 7.06366 14.8849C7.30598 14.8828 7.53954 14.9691 7.71438 15.1253L12.1579 19.2614L21.2917 10.7652C21.4672 10.613 21.6993 10.5302 21.9391 10.5341C22.1789 10.538 22.4078 10.6285 22.5774 10.7863C22.747 10.9442 22.8441 11.1572 22.8484 11.3804C22.8526 11.6037 22.7636 11.8197 22.6 11.9831V11.9716Z" fill="#89375F"/>
<path d="M5.41219 0.873167V3.98095H3.56074V0.861678C3.56074 0.748521 3.58469 0.636471 3.63121 0.531928C3.67773 0.427384 3.74592 0.332394 3.83188 0.25238C3.91784 0.172365 4.01989 0.108895 4.13221 0.0655913C4.24452 0.022288 4.3649 1.819e-08 4.48647 1.819e-08C4.60804 1.819e-08 4.72841 0.022288 4.84073 0.0655913C4.95304 0.108895 5.05509 0.172365 5.14106 0.25238C5.22702 0.332394 5.29521 0.427384 5.34173 0.531928C5.38825 0.636471 5.41219 0.748521 5.41219 0.861678V0.873167ZM15.4285 0.873167V3.98095H13.5771V0.861678C13.5771 0.748521 13.601 0.636471 13.6476 0.531928C13.6941 0.427384 13.7623 0.332394 13.8482 0.25238C13.9342 0.172365 14.0362 0.108895 14.1486 0.0655913C14.2609 0.0222879 14.3813 0 14.5028 0C14.6244 0 14.7448 0.0222879 14.8571 0.0655913C14.9694 0.108895 15.0714 0.172365 15.1574 0.25238C15.2434 0.332394 15.3116 0.427384 15.3581 0.531928C15.4046 0.636471 15.4285 0.748521 15.4285 0.861678V0.873167ZM25.4634 0.873167V3.98095H23.612V0.861678C23.612 0.633147 23.7095 0.413975 23.8831 0.25238C24.0567 0.0907837 24.2922 3.638e-08 24.5377 3.638e-08C24.7832 3.638e-08 25.0187 0.0907837 25.1923 0.25238C25.3659 0.413975 25.4634 0.633147 25.4634 0.861678V0.873167Z" fill="#89375F"/>
</svg>
