<svg width="60" height="76" viewBox="0 0 60 76" fill="none" xmlns="http://www.w3.org/2000/svg">
<path fill-rule="evenodd" clip-rule="evenodd" d="M13.4789 16.2857C13.4789 7.29136 20.7228 0 29.6585 0C38.5943 0 45.8381 7.29136 45.8381 16.2857C45.8381 25.2801 38.5943 32.5714 29.6585 32.5714C20.7228 32.5714 13.4789 25.2801 13.4789 16.2857Z" fill="#B3638A"/>
<path fill-rule="evenodd" clip-rule="evenodd" d="M0.000402451 67.3336C0.278477 51.0849 13.4501 38 29.6585 38C45.8673 38 59.0392 51.0855 59.3167 67.3347C59.3351 68.4124 58.7183 69.3988 57.7451 69.8483C49.1917 73.7989 39.6774 76 29.6597 76C19.641 76 10.1259 73.7985 1.57189 69.8472C0.598709 69.3977 -0.0180399 68.4112 0.000402451 67.3336Z" fill="#B3638A"/>
</svg>
