<svg width="34" height="34" viewBox="0 0 34 34" fill="none" xmlns="http://www.w3.org/2000/svg">
<path d="M17 13.7696C20.5208 13.7696 23.375 10.9154 23.375 7.39456C23.375 3.87374 20.5208 1.01956 17 1.01956C13.4792 1.01956 10.625 3.87374 10.625 7.39456C10.625 10.9154 13.4792 13.7696 17 13.7696Z" fill="#C1C1C1"/>
<path d="M32.7888 28.5173C32.1275 25.5065 30.6112 22.7506 28.4219 20.5805C27.8906 20.0472 27.3147 19.5603 26.7007 19.1248C23.9042 17.0272 20.4957 15.9072 17 15.9373C12.7257 15.9155 8.61618 17.5845 5.56754 20.5805C3.37826 22.7506 1.86194 25.5065 1.20066 28.5173C1.08572 29.0497 1.09193 29.6011 1.21883 30.1308C1.34573 30.6605 1.59007 31.1548 1.93379 31.5773C2.28975 32.0089 2.738 32.3551 3.24552 32.5905C3.75304 32.8259 4.30689 32.9444 4.86629 32.9373H29.1338C29.6948 32.9377 30.2488 32.8118 30.7545 32.569C31.2603 32.3263 31.705 31.9728 32.0557 31.5348C32.3932 31.1173 32.634 30.6301 32.7608 30.1083C32.8876 29.5866 32.8971 29.0432 32.7888 28.5173Z" fill="#C1C1C1"/>
</svg>
