<svg width="47" height="47" viewBox="0 0 47 47" fill="none" xmlns="http://www.w3.org/2000/svg">
<g clip-path="url(#clip0_1_916)">
<path d="M23.5 18.7999C22.5742 18.7999 21.6574 18.9823 20.8021 19.3366C19.9467 19.6909 19.1695 20.2102 18.5149 20.8648C17.8602 21.5195 17.3409 22.2967 16.9866 23.152C16.6324 24.0074 16.45 24.9241 16.45 25.8499C16.45 26.7758 16.6324 27.6925 16.9866 28.5479C17.3409 29.4032 17.8602 30.1804 18.5149 30.835C19.1695 31.4897 19.9467 32.009 20.8021 32.3633C21.6574 32.7176 22.5742 32.8999 23.5 32.8999C25.3698 32.8999 27.163 32.1572 28.4851 30.835C29.8072 29.5129 30.55 27.7197 30.55 25.8499C30.55 23.9802 29.8072 22.187 28.4851 20.8648C27.163 19.5427 25.3698 18.7999 23.5 18.7999ZM42.3 11.7499H36.66C36.2541 11.7314 35.8624 11.5948 35.533 11.3569C35.2037 11.1189 34.9509 10.79 34.8058 10.4104L33.3465 6.0371C33.2004 5.65798 32.947 5.32963 32.6173 5.09217C32.2876 4.85471 31.8959 4.71842 31.49 4.69995H15.51C14.7345 4.69995 13.8979 5.30155 13.6558 6.03475L12.1941 10.4104C12.0488 10.7898 11.796 11.1186 11.4667 11.3565C11.1374 11.5944 10.7458 11.7311 10.34 11.7499H4.7C2.115 11.7499 0 13.8649 0 16.4499V37.5999C0 40.1849 2.115 42.2999 4.7 42.2999H42.3C44.885 42.2999 47 40.1849 47 37.5999V16.4499C47 13.8649 44.885 11.7499 42.3 11.7499ZM23.5 37.5999C20.3837 37.5999 17.395 36.362 15.1915 34.1584C12.9879 31.9549 11.75 28.9662 11.75 25.8499C11.75 22.7337 12.9879 19.745 15.1915 17.5414C17.395 15.3379 20.3837 14.0999 23.5 14.0999C26.6163 14.0999 29.6049 15.3379 31.8085 17.5414C34.0121 19.745 35.25 22.7337 35.25 25.8499C35.25 28.9662 34.0121 31.9549 31.8085 34.1584C29.6049 36.362 26.6163 37.5999 23.5 37.5999ZM41.125 19.2699C40.6887 19.2699 40.2703 19.0966 39.9618 18.7881C39.6533 18.4796 39.48 18.0612 39.48 17.6249C39.48 17.1887 39.6533 16.7703 39.9618 16.4618C40.2703 16.1533 40.6887 15.9799 41.125 15.9799C41.5613 15.9799 41.9797 16.1533 42.2882 16.4618C42.5967 16.7703 42.77 17.1887 42.77 17.6249C42.77 18.0612 42.5967 18.4796 42.2882 18.7881C41.9797 19.0966 41.5613 19.2699 41.125 19.2699Z" fill="white"/>
</g>
<defs>
<clipPath id="clip0_1_916">
<rect width="46.2529" height="46.2529" fill="white" transform="scale(1.01615)"/>
</clipPath>
</defs>
</svg>
