<svg width="31" height="30" viewBox="0 0 31 30" fill="none" xmlns="http://www.w3.org/2000/svg">
<path d="M22.3445 3.35554C21.9303 2.94135 21.2704 2.94135 20.8562 3.35554L12.8605 11.3512C12.7342 11.4706 12.6499 11.625 12.5938 11.7935L11.2881 16.1529C11.1757 16.5249 11.2811 16.925 11.5548 17.1988C11.7514 17.4024 12.0252 17.5077 12.299 17.5077C12.3972 17.5077 12.5025 17.4936 12.6008 17.4656L16.9601 16.1599C17.1287 16.1037 17.2831 16.0195 17.4024 15.8931L25.3981 7.89741C25.5947 7.70088 25.707 7.43412 25.707 7.15331C25.707 6.87254 25.5947 6.60578 25.3981 6.4092L22.3445 3.35554Z" fill="white"/>
<path d="M24.654 12.8745C24.0723 12.8745 23.601 13.3462 23.601 13.9275V20.9474C23.601 21.9154 22.8136 22.7024 21.846 22.7024H7.80614C6.8385 22.7024 6.05115 21.9154 6.05115 20.9474V6.90758C6.05115 5.9396 6.8385 5.1526 7.80614 5.1526H14.8261C15.4077 5.1526 15.8791 4.68095 15.8791 4.09961C15.8791 3.51828 15.4077 3.04662 14.8261 3.04662H7.80614C5.6772 3.04662 3.94518 4.77898 3.94518 6.90758V20.9474C3.94518 23.076 5.6772 24.8084 7.80614 24.8084H21.846C23.9749 24.8084 25.707 23.076 25.707 20.9474V13.9275C25.707 13.3462 25.2356 12.8745 24.654 12.8745Z" fill="white"/>
</svg>
