<svg width="23" height="23" viewBox="0 0 23 23" fill="none" xmlns="http://www.w3.org/2000/svg">
<g clip-path="url(#clip0_28_257)">
<path d="M18.6204 12.4391C18.6587 12.1325 18.6875 11.8258 18.6875 11.5C18.6875 11.1741 18.6587 10.8675 18.6204 10.5608L20.6425 8.97956C20.8246 8.83581 20.8725 8.57706 20.7575 8.36623L18.8408 5.0504C18.7258 4.83957 18.4671 4.7629 18.2562 4.83957L15.87 5.7979C15.3717 5.41457 14.835 5.09832 14.2504 4.85873L13.8863 2.31916C13.8575 2.08916 13.6563 1.91666 13.4167 1.91666H9.58335C9.34376 1.91666 9.14251 2.08916 9.11376 2.31916L8.7496 4.85873C8.16502 5.09832 7.62835 5.42415 7.13002 5.7979L4.74377 4.83957C4.52336 4.75332 4.27419 4.83957 4.15919 5.0504L2.24253 8.36623C2.11795 8.57706 2.17545 8.83581 2.35753 8.97956L4.37961 10.5608C4.34127 10.8675 4.31252 11.1837 4.31252 11.5C4.31252 11.8162 4.34127 12.1325 4.37961 12.4391L2.35753 14.0204C2.17545 14.1641 2.12753 14.4229 2.24253 14.6337L4.15919 17.9495C4.27419 18.1604 4.53294 18.237 4.74377 18.1604L7.13002 17.202C7.62835 17.5854 8.16502 17.9016 8.7496 18.1412L9.11376 20.6808C9.14251 20.9108 9.34376 21.0833 9.58335 21.0833H13.4167C13.6563 21.0833 13.8575 20.9108 13.8863 20.6808L14.2504 18.1412C14.835 17.9016 15.3717 17.5758 15.87 17.202L18.2562 18.1604C18.4767 18.2466 18.7258 18.1604 18.8408 17.9495L20.7575 14.6337C20.8725 14.4229 20.8246 14.1641 20.6425 14.0204L18.6204 12.4391ZM11.5 14.8541C9.65043 14.8541 8.14585 13.3495 8.14585 11.5C8.14585 9.65039 9.65043 8.14581 11.5 8.14581C13.3496 8.14581 14.8542 9.65039 14.8542 11.5C14.8542 13.3495 13.3496 14.8541 11.5 14.8541Z" fill="white"/>
</g>
<defs>
<clipPath id="clip0_28_257">
<rect width="22.2613" height="22.2613" fill="white" transform="scale(1.03318)"/>
</clipPath>
</defs>
</svg>
