<svg width="14" height="14" viewBox="0 0 14 14" fill="none" xmlns="http://www.w3.org/2000/svg">
<path d="M6.07004 0.0169971C2.72285 0.0169971 0 2.68554 0 5.96598C0 9.24643 2.72285 11.915 6.07004 11.915C7.09328 11.915 8.09917 11.677 8.94898 11.2181C9.01705 11.2984 9.09252 11.3723 9.17444 11.4391L10.9087 13.1388C11.0689 13.3154 11.2642 13.458 11.4826 13.558C11.701 13.6579 11.938 13.7131 12.179 13.72C12.4199 13.727 12.6598 13.6856 12.8839 13.5984C13.1079 13.5112 13.3114 13.3801 13.4819 13.213C13.6523 13.0459 13.7862 12.8465 13.8751 12.6269C13.9641 12.4073 14.0063 12.1722 13.9992 11.9361C13.9921 11.6999 13.9359 11.4677 13.8339 11.2536C13.7319 11.0395 13.5863 10.8481 13.4061 10.6912L11.6718 8.99147C11.5873 8.90864 11.4944 8.8346 11.3943 8.77051C11.8626 7.93765 12.1574 6.96881 12.1574 5.94899C12.1574 2.66855 9.43458 0 6.08739 0L6.07004 0.0169971ZM6.07004 1.71671C8.48072 1.71671 10.4058 3.60339 10.4058 5.96598C10.4058 7.08779 9.98956 8.12462 9.26115 8.88949C9.24381 8.90649 9.22647 8.92348 9.20912 8.94048C9.12721 9.00719 9.05174 9.08116 8.98366 9.16144C8.22057 9.84133 7.17999 10.2323 6.0527 10.2323C3.64203 10.2323 1.71696 8.34558 1.71696 5.98298C1.71696 3.62038 3.64203 1.7337 6.0527 1.7337L6.07004 1.71671Z" fill="#959595"/>
</svg>
