<svg width="27" height="27" viewBox="0 0 27 27" fill="none" xmlns="http://www.w3.org/2000/svg">
<g clip-path="url(#clip0_3_450)">
<path d="M21.8587 14.6025C21.9037 14.2425 21.9374 13.8825 21.9374 13.5C21.9374 13.1175 21.9037 12.7575 21.8587 12.3975L24.2324 10.5412C24.4462 10.3725 24.5024 10.0687 24.3674 9.82124L22.1174 5.92874C21.9824 5.68124 21.6787 5.59124 21.4312 5.68124L18.6299 6.80624C18.0449 6.35624 17.4149 5.98499 16.7287 5.70374L16.3012 2.72248C16.2674 2.45248 16.0312 2.24998 15.7499 2.24998H11.2499C10.9687 2.24998 10.7324 2.45248 10.6987 2.72248L10.2712 5.70374C9.58493 5.98499 8.95493 6.36749 8.36993 6.80624L5.56868 5.68124C5.30993 5.57999 5.01743 5.68124 4.88243 5.92874L2.63243 9.82124C2.48618 10.0687 2.55368 10.3725 2.76743 10.5412L5.14118 12.3975C5.09618 12.7575 5.06243 13.1287 5.06243 13.5C5.06243 13.8712 5.09618 14.2425 5.14118 14.6025L2.76743 16.4587C2.55368 16.6275 2.49743 16.9312 2.63243 17.1787L4.88243 21.0712C5.01743 21.3187 5.32118 21.4087 5.56868 21.3187L8.36993 20.1937C8.95493 20.6437 9.58493 21.015 10.2712 21.2962L10.6987 24.2775C10.7324 24.5475 10.9687 24.75 11.2499 24.75H15.7499C16.0312 24.75 16.2674 24.5475 16.3012 24.2775L16.7287 21.2962C17.4149 21.015 18.0449 20.6325 18.6299 20.1937L21.4312 21.3187C21.6899 21.42 21.9824 21.3187 22.1174 21.0712L24.3674 17.1787C24.5024 16.9312 24.4462 16.6275 24.2324 16.4587L21.8587 14.6025ZM13.4999 17.4375C11.3287 17.4375 9.56243 15.6712 9.56243 13.5C9.56243 11.3287 11.3287 9.56249 13.4999 9.56249C15.6712 9.56249 17.4374 11.3287 17.4374 13.5C17.4374 15.6712 15.6712 17.4375 13.4999 17.4375Z" fill="white"/>
</g>
<defs>
<clipPath id="clip0_3_450">
<rect width="26.6834" height="26.6834" fill="white" transform="scale(1.01186)"/>
</clipPath>
</defs>
</svg>
