<svg width="26" height="26" viewBox="0 0 26 26" fill="none" xmlns="http://www.w3.org/2000/svg">
<path d="M24.423 3.71563H22.8295V5.78533C22.8295 5.99864 22.742 6.20322 22.5864 6.35405C22.4307 6.50488 22.2196 6.58962 21.9995 6.58962C21.7794 6.58962 21.5683 6.50488 21.4126 6.35405C21.257 6.20322 21.1695 5.99864 21.1695 5.78533V3.71563H13.8327V5.78533C13.8327 5.99864 13.7452 6.20322 13.5896 6.35405C13.4339 6.50488 13.2228 6.58962 13.0027 6.58962C12.7826 6.58962 12.5715 6.50488 12.4159 6.35405C12.2602 6.20322 12.1728 5.99864 12.1728 5.78533V3.71563H4.85251V5.78533C4.85251 5.99864 4.76506 6.20322 4.60942 6.35405C4.45377 6.50488 4.24266 6.58962 4.02254 6.58962C3.80243 6.58962 3.59132 6.50488 3.43567 6.35405C3.28003 6.20322 3.19258 5.99864 3.19258 5.78533V3.71563H1.57693C1.1587 3.71563 0.757602 3.87664 0.461871 4.16322C0.16614 4.4498 0 4.83849 0 5.24378L0 24.4716C0.00145823 24.8765 0.168066 25.2643 0.463482 25.5506C0.758897 25.8369 1.15915 25.9983 1.57693 25.9997H24.423C24.6301 25.9997 24.8351 25.9602 25.0265 25.8834C25.2178 25.8066 25.3916 25.6941 25.538 25.5522C25.6845 25.4103 25.8006 25.2418 25.8799 25.0564C25.9591 24.871 25.9999 24.6723 25.9999 24.4716V5.2545C26.0021 5.05273 25.9629 4.85254 25.8846 4.66557C25.8062 4.47861 25.6904 4.30859 25.5436 4.16541C25.3969 4.02223 25.2223 3.90873 25.0299 3.83152C24.8375 3.7543 24.6312 3.71491 24.423 3.71563ZM20.2621 11.1741L11.4867 19.6888C11.4098 19.7637 11.3185 19.8232 11.2178 19.8637C11.1171 19.9041 11.0092 19.9249 10.9002 19.9247C10.6802 19.9239 10.4695 19.8392 10.3136 19.6888L5.7378 15.2545C5.5881 15.1019 5.50596 14.8986 5.50896 14.6881C5.51196 14.4775 5.59985 14.2765 5.75384 14.128C5.90783 13.9795 6.11568 13.8952 6.33294 13.8933C6.55019 13.8914 6.75959 13.972 6.91634 14.1177L10.9002 17.9783L19.0891 10.0481C19.2464 9.90598 19.4545 9.82864 19.6695 9.83232C19.8846 9.83599 20.0897 9.9204 20.2418 10.0678C20.3938 10.2151 20.4809 10.4139 20.4847 10.6223C20.4885 10.8307 20.4087 11.0323 20.2621 11.1848V11.1741Z" fill="#C1C1C1"/>
<path d="M4.85253 0.815011V3.71581H3.19261V0.804287C3.19261 0.698666 3.21407 0.59408 3.25578 0.4965C3.29749 0.398919 3.35863 0.310255 3.4357 0.23557C3.51276 0.160885 3.60426 0.101642 3.70495 0.0612227C3.80565 0.0208035 3.91357 1.69785e-08 4.02257 1.69785e-08C4.13156 1.69785e-08 4.23948 0.0208035 4.34018 0.0612227C4.44087 0.101642 4.53237 0.160885 4.60944 0.23557C4.68651 0.310255 4.74764 0.398919 4.78935 0.4965C4.83106 0.59408 4.85253 0.698666 4.85253 0.804287V0.815011ZM13.8327 0.815011V3.71581H12.1728V0.804287C12.1728 0.698666 12.1943 0.59408 12.236 0.4965C12.2777 0.398919 12.3388 0.310255 12.4159 0.23557C12.4929 0.160885 12.5844 0.101642 12.6851 0.0612227C12.7858 0.0208035 12.8938 0 13.0027 0C13.1117 0 13.2197 0.0208035 13.3204 0.0612227C13.4211 0.101642 13.5125 0.160885 13.5896 0.23557C13.6667 0.310255 13.7278 0.398919 13.7695 0.4965C13.8112 0.59408 13.8327 0.698666 13.8327 0.804287V0.815011ZM22.8295 0.815011V3.71581H21.1696V0.804287C21.1696 0.590977 21.257 0.386403 21.4127 0.23557C21.5683 0.0847372 21.7794 3.3957e-08 21.9995 3.3957e-08C22.2196 3.3957e-08 22.4307 0.0847372 22.5864 0.23557C22.742 0.386403 22.8295 0.590977 22.8295 0.804287V0.815011Z" fill="#C1C1C1"/>
</svg>
