<svg width="19" height="19" viewBox="0 0 19 19" fill="none" xmlns="http://www.w3.org/2000/svg">
<path d="M17.6427 10.8571H10.857V17.6429C10.857 18.3893 10.2463 19 9.49991 19C8.75349 19 8.14278 18.3893 8.14278 17.6429V10.8571H1.35713C0.610709 10.8571 0 10.2464 0 9.50001C0 8.75358 0.610709 8.14286 1.35713 8.14286H8.14278V1.35714C8.14278 0.610715 8.75349 0 9.49991 0C10.2463 0 10.857 0.610715 10.857 1.35714V8.14286H17.6427C18.3891 8.14286 18.9998 8.75358 18.9998 9.50001C18.9998 10.2464 18.3891 10.8571 17.6427 10.8571Z" fill="white"/>
</svg>
