<svg width="36" height="36" viewBox="0 0 36 36" fill="none" xmlns="http://www.w3.org/2000/svg">
<path d="M25.875 15.75C27.7383 15.75 29.25 14.2383 29.25 12.3751C29.25 10.5118 27.7383 9.00006 25.875 9.00006C24.0117 9.00006 22.5 10.5118 22.5 12.3751C22.5 14.2383 24.0117 15.75 25.875 15.75Z" fill="#959595"/>
<path d="M31.7812 4.50028H4.21876C3.12189 4.50028 2.25002 5.39325 2.25002 6.49012V29.5104C2.25002 30.6072 3.12189 31.5002 4.21876 31.5002H31.7812C32.8781 31.5002 33.7499 30.6072 33.7499 29.5104V6.49012C33.7499 5.39325 32.8781 4.50028 31.7812 4.50028ZM24.532 18.401C24.321 18.1549 23.9976 17.9651 23.632 17.9651C23.2734 17.9651 23.0203 18.1338 22.732 18.3659L21.4172 19.4768C21.1429 19.6737 20.925 19.8073 20.6086 19.8073C20.3062 19.8073 20.032 19.6948 19.8351 19.519C19.7648 19.4557 19.6382 19.3362 19.5328 19.2307L15.75 15.1385C15.4687 14.8151 15.0469 14.6112 14.5758 14.6112C14.1047 14.6112 13.6687 14.8432 13.3945 15.1596L4.50001 25.8893V7.57293C4.57032 7.09481 4.94298 6.75028 5.4211 6.75028H30.5718C31.057 6.75028 31.4507 7.10887 31.4788 7.59402L31.4999 25.9033L24.532 18.401Z" fill="#959595"/>
</svg>
