<?xml version="1.0" standalone="no"?>
<!DOCTYPE svg PUBLIC "-//W3C//DTD SVG 20010904//EN"
 "http://www.w3.org/TR/2001/REC-SVG-20010904/DTD/svg10.dtd">
<svg version="1.0" xmlns="http://www.w3.org/2000/svg"
 width="100%" height="100%" viewBox="0 0 500.000000 500.000000"
 preserveAspectRatio="xMidYMid meet">

<!-- Add a white background -->
<rect width="100%" height="100%" fill="white"/>

<g transform="translate(0.000000,500.000000) scale(0.100000,-0.100000)"
fill="#000000" stroke="none">
<path d="M1691 2964 c-52 -22 -116 -79 -135 -118 -17 -36 -22 -91 -8 -100 18
-11 77 32 139 101 63 70 106 103 134 103 7 0 -8 -13 -33 -29 -25 -16 -60 -50
-77 -75 -36 -52 -84 -91 -123 -101 -16 -4 -28 -11 -28 -16 0 -15 64 -26 105
-17 67 15 172 98 165 132 -1 5 4 12 11 17 7 4 12 22 12 40 0 67 -81 99 -162
63z"/>
<path d="M2360 2575 l0 -395 85 0 85 0 0 92 0 93 93 -93 92 -92 105 0 105 0
-123 123 -122 122 112 113 113 112 -110 0 -110 0 -77 -77 -78 -78 0 238 0 237
-85 0 -85 0 0 -395z"/>
<path d="M2984 2866 c-3 -7 -4 -33 -2 -57 l3 -44 188 -3 187 -2 0 60 0 60
-185 0 c-149 0 -187 -3 -191 -14z"/>
<path d="M2047 2656 c-21 -8 -46 -21 -56 -30 -23 -21 -31 -20 -31 4 0 18 -7
20 -80 20 l-80 0 0 -235 0 -235 79 0 80 0 3 151 3 151 33 29 c56 50 122 32
142 -39 5 -20 10 -94 10 -164 l0 -128 80 0 80 0 0 173 c0 163 -2 177 -23 218
-39 74 -157 115 -240 85z"/>
<path d="M3041 2655 c-56 -18 -114 -74 -142 -139 -39 -92 -14 -220 58 -288 77
-74 218 -79 296 -10 16 14 17 13 17 -11 0 -27 0 -27 80 -27 l80 0 0 235 0 235
-80 0 c-74 0 -80 -1 -80 -21 l0 -20 -28 20 c-29 20 -99 41 -137 40 -11 0 -40
-7 -64 -14z m169 -140 c41 -21 60 -53 60 -103 0 -35 -6 -49 -29 -73 -25 -24
-38 -29 -79 -29 -40 0 -54 5 -75 26 -54 54 -40 151 25 179 43 18 62 18 98 0z"/>
<path d="M1570 2415 l0 -235 80 0 80 0 0 235 0 235 -80 0 -80 0 0 -235z"/>
</g>
</svg>
