<svg width="39" height="39" viewBox="0 0 39 39" fill="none" xmlns="http://www.w3.org/2000/svg">
<path d="M28.0313 17.0625C30.0498 17.0625 31.6875 15.4248 31.6875 13.4062C31.6875 11.3877 30.0498 9.74999 28.0313 9.74999C26.0127 9.74999 24.375 11.3877 24.375 13.4062C24.375 15.4248 26.0127 17.0625 28.0313 17.0625Z" fill="#959595"/>
<path d="M34.4297 4.87506H4.57034C3.38206 4.87506 2.43753 5.84244 2.43753 7.03072V31.9694C2.43753 33.1577 3.38206 34.1251 4.57034 34.1251H34.4297C35.618 34.1251 36.5625 33.1577 36.5625 31.9694V7.03072C36.5625 5.84244 35.618 4.87506 34.4297 4.87506ZM26.5764 19.9342C26.3479 19.6676 25.9975 19.462 25.6014 19.462C25.2129 19.462 24.9387 19.6448 24.6264 19.8961L23.202 21.0997C22.9049 21.3129 22.6688 21.4577 22.326 21.4577C21.9985 21.4577 21.7014 21.3358 21.4881 21.1454C21.4119 21.0768 21.2748 20.9473 21.1606 20.8331L17.0625 16.3999C16.7578 16.0495 16.3008 15.8286 15.7905 15.8286C15.2801 15.8286 14.8078 16.0799 14.5108 16.4227L4.87503 28.0465V8.20377C4.9512 7.6858 5.35491 7.31256 5.87288 7.31256H33.1196C33.6451 7.31256 34.0717 7.70103 34.1022 8.22662L34.125 28.0618L26.5764 19.9342Z" fill="#959595"/>
</svg>
