<svg width="19" height="22" viewBox="0 0 19 22" fill="none" xmlns="http://www.w3.org/2000/svg">
<path d="M11.7858 22H10.8649C10.2442 22 9.63761 21.7486 9.19761 21.3101L5.40417 17.5167C5.25717 17.3693 5.05766 17.2862 4.84945 17.2857H2.35715C1.05758 17.2857 0 16.2281 0 14.9286V7.07143C0 5.77186 1.05758 4.71429 2.35715 4.71429H4.84945C5.05784 4.71397 5.25771 4.63154 5.40574 4.48486L9.19918 0.691429C9.63761 0.251429 10.2458 0 10.8649 0H11.7858C13.0853 0 14.1429 1.05757 14.1429 2.35714V19.6429C14.1429 20.9424 13.0853 22 11.7858 22ZM2.35715 6.28572C2.14877 6.28572 1.94892 6.3685 1.80157 6.51584C1.65422 6.66319 1.57143 6.86305 1.57143 7.07143V14.9286C1.57143 15.3607 1.92501 15.7143 2.35715 15.7143H4.84945C5.47017 15.7143 6.07674 15.9657 6.51674 16.4041L10.3102 20.1976C10.4574 20.3447 10.6568 20.4278 10.8649 20.4286H11.7858C12.2179 20.4286 12.5715 20.075 12.5715 19.6429V2.35714C12.5715 2.14876 12.4887 1.94891 12.3414 1.80156C12.194 1.65421 11.9942 1.57143 11.7858 1.57143H10.8649C10.6565 1.57174 10.4566 1.65417 10.3086 1.80086L6.51517 5.59429C6.07674 6.03429 5.47017 6.28572 4.84945 6.28572H2.35715ZM16.5001 15.2413C16.3422 15.2406 16.1881 15.1925 16.0579 15.1032C15.9277 15.0139 15.8274 14.8875 15.7699 14.7404C15.7125 14.5933 15.7006 14.4324 15.7358 14.2785C15.771 14.1245 15.8517 13.9848 15.9674 13.8773C16.3701 13.5138 16.6922 13.0698 16.9126 12.574C17.133 12.0783 17.2468 11.5418 17.2468 10.9992C17.2468 10.4567 17.133 9.92015 16.9126 9.42439C16.6922 8.92862 16.3701 8.48463 15.9674 8.12114C15.814 7.97986 15.723 7.78344 15.7145 7.57508C15.7059 7.36673 15.7805 7.16352 15.9218 7.01014C16.0631 6.85677 16.2595 6.76581 16.4678 6.75726C16.6762 6.74872 16.8794 6.82329 17.0328 6.96457C18.1815 8.02529 18.8164 9.45686 18.8164 10.9984C18.8164 12.54 18.1831 13.9731 17.0328 15.0323C16.888 15.1667 16.6977 15.2414 16.5001 15.2413Z" fill="white"/>
</svg>
