<svg width="21" height="22" viewBox="0 0 21 22" fill="none" xmlns="http://www.w3.org/2000/svg">
<mask id="mask0_12_248" style="mask-type:luminance" maskUnits="userSpaceOnUse" x="0" y="0" width="21" height="22">
<path d="M21 0H0V21.6952H21V0Z" fill="white"/>
</mask>
<g mask="url(#mask0_12_248)">
<path fill-rule="evenodd" clip-rule="evenodd" d="M10.5 0C4.7049 0 0 4.86065 0 10.8476C0 16.8345 4.7049 21.6952 10.5 21.6952C16.2951 21.6952 21 16.8345 21 10.8476C21 4.86065 16.2951 0 10.5 0ZM15.0117 12.1612C15.3489 12.1612 15.6723 12.0228 15.9108 11.7764C16.1492 11.5301 16.2832 11.196 16.2832 10.8476C16.2832 10.1221 15.7139 9.53401 15.0117 9.53401C12.7869 9.53401 8.21313 9.53401 5.98828 9.53401C5.65105 9.53401 5.32764 9.6724 5.08922 9.91876C4.85075 10.1651 4.71679 10.4992 4.71679 10.8476C4.71679 11.5731 5.28605 12.1612 5.98828 12.1612H15.0117Z" fill="#E14040"/>
</g>
</svg>
