<svg width="34" height="29" viewBox="0 0 34 29" fill="none" xmlns="http://www.w3.org/2000/svg">
<path d="M31.7188 0H2.11458C0.936459 0 0 0.959115 0 2.13724V26.8628C0 28.0409 0.936459 29 2.11458 29H31.7188C32.8969 29 33.8334 28.0409 33.8334 26.8628V2.13724C33.8334 0.959115 32.8969 0 31.7188 0ZM23.9326 14.9305C23.706 14.6662 23.3586 14.4622 22.9659 14.4622C22.5807 14.4622 22.3089 14.6435 21.9992 14.8927L20.587 16.0859C20.2925 16.2974 20.0583 16.4409 19.7185 16.4409C19.3938 16.4409 19.0992 16.3201 18.8878 16.1313C18.8123 16.0633 18.6763 15.9349 18.563 15.8216L14.5 11.4263C14.1979 11.0789 13.7448 10.8599 13.2388 10.8599C12.7328 10.8599 12.2646 11.1091 11.9701 11.449L2.41667 22.9735V3.30026C2.49219 2.78672 2.89245 2.41667 3.40599 2.41667H30.4198C30.9409 2.41667 31.3638 2.80182 31.394 3.32292L31.4167 22.9886L23.9326 14.9305Z" fill="#959595"/>
</svg>
