<svg width="28" height="28" viewBox="0 0 28 28" fill="none" xmlns="http://www.w3.org/2000/svg">
<path fill-rule="evenodd" clip-rule="evenodd" d="M23.3333 5.8331H21.9683C21.7273 5.14998 21.2803 4.55844 20.6889 4.14002C20.0976 3.72161 19.391 3.49691 18.6666 3.49691C17.9422 3.49691 17.2357 3.72161 16.6443 4.14002C16.053 4.55844 15.606 5.14998 15.365 5.8331H4.66664C4.35722 5.8331 4.06047 5.95601 3.84168 6.1748C3.62289 6.3936 3.49997 6.69034 3.49997 6.99976C3.49997 7.30918 3.62289 7.60592 3.84168 7.82471C4.06047 8.0435 4.35722 8.16642 4.66664 8.16642H15.365C15.606 8.84954 16.053 9.44108 16.6443 9.85949C17.2357 10.2779 17.9422 10.5026 18.6666 10.5026C19.391 10.5026 20.0976 10.2779 20.6889 9.85949C21.2803 9.44108 21.7273 8.84954 21.9683 8.16642H23.3333C23.6427 8.16642 23.9395 8.0435 24.1583 7.82471C24.3771 7.60592 24.5 7.30918 24.5 6.99976C24.5 6.69034 24.3771 6.3936 24.1583 6.1748C23.9395 5.95601 23.6427 5.8331 23.3333 5.8331ZM18.6666 8.16642C18.9761 8.16642 19.2728 8.0435 19.4916 7.82471C19.7104 7.60592 19.8333 7.30918 19.8333 6.99976C19.8333 6.69034 19.7104 6.3936 19.4916 6.1748C19.2728 5.95601 18.9761 5.8331 18.6666 5.8331C18.3572 5.8331 18.0605 5.95601 17.8417 6.1748C17.6229 6.3936 17.5 6.69034 17.5 6.99976C17.5 7.30918 17.6229 7.60592 17.8417 7.82471C18.0605 8.0435 18.3572 8.16642 18.6666 8.16642ZM3.49997 13.9997C3.49997 13.6903 3.62289 13.3936 3.84168 13.1748C4.06047 12.956 4.35722 12.8331 4.66664 12.8331H6.03164C6.27268 12.1499 6.71967 11.5584 7.31101 11.14C7.90234 10.7216 8.60891 10.4969 9.33331 10.4969C10.0577 10.4969 10.7643 10.7216 11.3556 11.14C11.9469 11.5584 12.3939 12.1499 12.635 12.8331H23.3333C23.6427 12.8331 23.9395 12.956 24.1583 13.1748C24.3771 13.3936 24.5 13.6903 24.5 13.9997C24.5 14.3091 24.3771 14.6059 24.1583 14.8247C23.9395 15.0435 23.6427 15.1664 23.3333 15.1664H12.635C12.3939 15.8495 11.9469 16.441 11.3556 16.8595C10.7643 17.2779 10.0577 17.5026 9.33331 17.5026C8.60891 17.5026 7.90234 17.2779 7.31101 16.8595C6.71967 16.441 6.27268 15.8495 6.03164 15.1664H4.66664C4.35722 15.1664 4.06047 15.0435 3.84168 14.8247C3.62289 14.6059 3.49997 14.3091 3.49997 13.9997ZM9.33331 15.1664C9.64273 15.1664 9.93947 15.0435 10.1583 14.8247C10.3771 14.6059 10.5 14.3091 10.5 13.9997C10.5 13.6903 10.3771 13.3936 10.1583 13.1748C9.93947 12.956 9.64273 12.8331 9.33331 12.8331C9.02389 12.8331 8.72714 12.956 8.50835 13.1748C8.28956 13.3936 8.16664 13.6903 8.16664 13.9997C8.16664 14.3091 8.28956 14.6059 8.50835 14.8247C8.72714 15.0435 9.02389 15.1664 9.33331 15.1664ZM4.66664 19.833C4.35722 19.833 4.06047 19.956 3.84168 20.1747C3.62289 20.3935 3.49997 20.6903 3.49997 20.9997C3.49997 21.3091 3.62289 21.6059 3.84168 21.8247C4.06047 22.0434 4.35722 22.1664 4.66664 22.1664H15.365C15.606 22.8495 16.053 23.441 16.6443 23.8594C17.2357 24.2778 17.9422 24.5025 18.6666 24.5025C19.391 24.5025 20.0976 24.2778 20.6889 23.8594C21.2803 23.441 21.7273 22.8495 21.9683 22.1664H23.3333C23.6427 22.1664 23.9395 22.0434 24.1583 21.8247C24.3771 21.6059 24.5 21.3091 24.5 20.9997C24.5 20.6903 24.3771 20.3935 24.1583 20.1747C23.9395 19.956 23.6427 19.833 23.3333 19.833H21.9683C21.7273 19.1499 21.2803 18.5584 20.6889 18.14C20.0976 17.7215 19.391 17.4969 18.6666 17.4969C17.9422 17.4969 17.2357 17.7215 16.6443 18.14C16.053 18.5584 15.606 19.1499 15.365 19.833H4.66664ZM19.8333 20.9997C19.8333 21.3091 19.7104 21.6059 19.4916 21.8247C19.2728 22.0434 18.9761 22.1664 18.6666 22.1664C18.3572 22.1664 18.0605 22.0434 17.8417 21.8247C17.6229 21.6059 17.5 21.3091 17.5 20.9997C17.5 20.6903 17.6229 20.3935 17.8417 20.1747C18.0605 19.956 18.3572 19.833 18.6666 19.833C18.9761 19.833 19.2728 19.956 19.4916 20.1747C19.7104 20.3935 19.8333 20.6903 19.8333 20.9997Z" fill="#B3638A"/>
</svg>
