<svg width="79" height="79" viewBox="0 0 79 79" fill="none" xmlns="http://www.w3.org/2000/svg">
<path d="M58.5549 35.8576V64.0307C58.5549 64.7532 58.2679 65.4461 57.757 65.9569C57.2461 66.4678 56.5532 66.7548 55.8307 66.7548H14.9687C14.2462 66.7548 13.5533 66.4678 13.0424 65.9569C12.5315 65.4461 12.2445 64.7532 12.2445 64.0307V31.341H32.2479L48.5954 14.9962H14.9687C10.4629 14.9962 6.79624 18.6629 6.79624 23.1686V64.0307C6.79624 68.5364 10.4629 72.2031 14.9687 72.2031H55.8307C60.3365 72.2031 64.0032 68.5364 64.0032 64.0307V30.4066L58.5549 35.8576ZM66.7545 19.9487L70.6065 16.0967C71.1268 15.5942 71.5419 14.993 71.8274 14.3283C72.113 13.6635 72.2633 12.9486 72.2696 12.2252C72.2758 11.5018 72.138 10.7844 71.864 10.1148C71.5901 9.44521 71.1856 8.8369 70.674 8.32535C70.1624 7.81379 69.5541 7.40924 68.8846 7.1353C68.215 6.86135 67.4976 6.7235 66.7741 6.72979C66.0507 6.73607 65.3358 6.88637 64.6711 7.17191C64.0064 7.45745 63.4052 7.87251 62.9026 8.39288L59.0507 12.2448L66.7545 19.9487Z" fill="white"/>
<path d="M55.196 16.0968L35.9364 35.3591L34.0077 44.9917L43.6402 43.063L62.9026 23.8034L55.196 16.0968Z" fill="white"/>
</svg>
