<svg width="28" height="28" viewBox="0 0 28 28" fill="none" xmlns="http://www.w3.org/2000/svg">
<path d="M26.3016 4.00159H24.5855V6.23048C24.5855 6.4602 24.4913 6.68051 24.3237 6.84294C24.1561 7.00538 23.9287 7.09664 23.6917 7.09664C23.4546 7.09664 23.2273 7.00538 23.0597 6.84294C22.8921 6.68051 22.7979 6.4602 22.7979 6.23048V4.00159H14.8967V6.23048C14.8967 6.4602 14.8025 6.68051 14.6349 6.84294C14.4673 7.00538 14.2399 7.09663 14.0029 7.09663C13.7658 7.09663 13.5385 7.00538 13.3709 6.84294C13.2032 6.68051 13.1091 6.4602 13.1091 6.23048V4.00159H5.22576V6.23048C5.22576 6.4602 5.13159 6.68051 4.96397 6.84294C4.79635 7.00538 4.56901 7.09663 4.33196 7.09663C4.0949 7.09663 3.86756 7.00538 3.69994 6.84294C3.53232 6.68051 3.43815 6.4602 3.43815 6.23048V4.00159H1.69822C1.24783 4.00159 0.815876 4.17497 0.497398 4.4836C0.178919 4.79222 0 5.21081 0 5.64727L0 26.3541C0.00157039 26.7901 0.180994 27.2078 0.499133 27.5161C0.817271 27.8244 1.24831 27.9982 1.69822 27.9998H26.3016C26.5246 27.9998 26.7454 27.9572 26.9515 27.8745C27.1575 27.7918 27.3447 27.6706 27.5024 27.5178C27.6601 27.3649 27.7852 27.1835 27.8705 26.9839C27.9559 26.7842 27.9998 26.5702 27.9998 26.3541V5.65882C28.0022 5.44153 27.96 5.22594 27.8756 5.02459C27.7912 4.82325 27.6664 4.64015 27.5084 4.48596C27.3504 4.33176 27.1624 4.20953 26.9552 4.12638C26.748 4.04323 26.5258 4.00081 26.3016 4.00159ZM21.8207 12.0337L12.3702 21.2034C12.2875 21.2841 12.1891 21.3481 12.0807 21.3917C11.9722 21.4353 11.856 21.4577 11.7386 21.4574C11.5017 21.4566 11.2748 21.3653 11.107 21.2034L6.17914 16.428C6.01793 16.2637 5.92947 16.0447 5.9327 15.818C5.93593 15.5913 6.03059 15.3748 6.19642 15.2149C6.36225 15.0549 6.5861 14.9642 6.82006 14.9621C7.05403 14.9601 7.27953 15.0468 7.44834 15.2038L11.7386 19.3613L20.5574 10.8211C20.7269 10.6681 20.951 10.5848 21.1825 10.5888C21.4141 10.5927 21.635 10.6836 21.7988 10.8423C21.9625 11.001 22.0563 11.2151 22.0604 11.4395C22.0645 11.6639 21.9785 11.8811 21.8207 12.0452V12.0337Z" fill="#C1C1C1"/>
<path d="M5.22578 0.877701V4.00162H3.43817V0.866152C3.43817 0.752407 3.46129 0.639776 3.50621 0.53469C3.55113 0.429604 3.61696 0.33412 3.69996 0.25369C3.78296 0.17326 3.88149 0.10946 3.98993 0.0659319C4.09837 0.0224037 4.2146 1.82844e-08 4.33197 1.82844e-08C4.44935 1.82844e-08 4.56558 0.0224037 4.67402 0.0659319C4.78246 0.10946 4.88099 0.17326 4.96399 0.25369C5.04698 0.33412 5.11282 0.429604 5.15774 0.53469C5.20266 0.639776 5.22578 0.752407 5.22578 0.866152V0.877701ZM14.8967 0.877701V4.00162H13.1091V0.866152C13.1091 0.752407 13.1322 0.639776 13.1771 0.53469C13.2221 0.429604 13.2879 0.33412 13.3709 0.25369C13.4539 0.17326 13.5524 0.10946 13.6609 0.0659319C13.7693 0.0224037 13.8855 0 14.0029 0C14.1203 0 14.2365 0.0224037 14.3449 0.0659319C14.4534 0.10946 14.5519 0.17326 14.6349 0.25369C14.7179 0.33412 14.7837 0.429604 14.8287 0.53469C14.8736 0.639776 14.8967 0.752407 14.8967 0.866152V0.877701ZM24.5855 0.877701V4.00162H22.7979V0.866152C22.7979 0.636434 22.8921 0.416125 23.0597 0.25369C23.2273 0.0912551 23.4547 3.65689e-08 23.6917 3.65689e-08C23.9288 3.65689e-08 24.1561 0.0912551 24.3237 0.25369C24.4913 0.416125 24.5855 0.636434 24.5855 0.866152V0.877701Z" fill="#C1C1C1"/>
</svg>
