<svg width="31" height="31" viewBox="0 0 31 31" fill="none" xmlns="http://www.w3.org/2000/svg">
<path d="M15.4996 12.555C18.7098 12.555 21.3121 9.95269 21.3121 6.74254C21.3121 3.53239 18.7098 0.930045 15.4996 0.930045C12.2895 0.930045 9.68712 3.53239 9.68712 6.74254C9.68712 9.95269 12.2895 12.555 15.4996 12.555Z" fill="#89375F"/>
<path d="M29.8953 26.0013C29.2924 23.2561 27.9098 20.7433 25.9137 18.7647C25.4293 18.2785 24.9042 17.8345 24.3444 17.4375C21.7947 15.525 18.6869 14.5038 15.4997 14.5313C11.6026 14.5113 7.8556 16.0331 5.07596 18.7647C3.07986 20.7433 1.69734 23.2561 1.09441 26.0013C0.989607 26.4867 0.995268 26.9894 1.11097 27.4724C1.22667 27.9553 1.44945 28.406 1.76284 28.7913C2.0874 29.1848 2.49609 29.5004 2.95883 29.715C3.42156 29.9296 3.92655 30.0377 4.43659 30.0313H26.5628C27.0743 30.0316 27.5794 29.9168 28.0405 29.6955C28.5017 29.4741 28.9071 29.1518 29.2269 28.7525C29.5346 28.3718 29.7542 27.9276 29.8698 27.4519C29.9853 26.9762 29.9941 26.4808 29.8953 26.0013Z" fill="#89375F"/>
</svg>
