<svg width="13" height="13" viewBox="0 0 13 13" fill="none" xmlns="http://www.w3.org/2000/svg">
<path d="M5.63648 0.015783C2.52836 0.015783 0 2.49372 0 5.53985C0 8.58598 2.52836 11.0639 5.63648 11.0639C6.58662 11.0639 7.52067 10.843 8.30977 10.4168C8.37298 10.4914 8.44306 10.56 8.51913 10.622L10.1296 12.2003C10.2783 12.3643 10.4596 12.4967 10.6624 12.5896C10.8652 12.6824 11.0853 12.7336 11.309 12.74C11.5328 12.7465 11.7555 12.7081 11.9636 12.6271C12.1716 12.5461 12.3606 12.4244 12.5189 12.2692C12.6772 12.1141 12.8014 11.9289 12.8841 11.725C12.9667 11.5211 13.0059 11.3028 12.9993 11.0835C12.9927 10.8642 12.9405 10.6486 12.8458 10.4498C12.751 10.251 12.6159 10.0733 12.4486 9.92754L10.8381 8.34923C10.7597 8.27232 10.6733 8.20356 10.5805 8.14405C11.0153 7.37068 11.2891 6.47105 11.2891 5.52407C11.2891 2.47794 8.76069 0 5.65258 0L5.63648 0.015783ZM5.63648 1.59409C7.87496 1.59409 9.66253 3.34601 9.66253 5.53985C9.66253 6.58153 9.27603 7.5443 8.59965 8.25453C8.58355 8.27032 8.56744 8.2861 8.55134 8.30188C8.47527 8.36383 8.40519 8.43251 8.34198 8.50706C7.6334 9.13838 6.66714 9.50139 5.62037 9.50139C3.38189 9.50139 1.59432 7.74947 1.59432 5.55563C1.59432 3.36179 3.38189 1.60987 5.62037 1.60987L5.63648 1.59409Z" fill="#959595"/>
</svg>
