<svg width="28" height="28" viewBox="0 0 28 28" fill="none" xmlns="http://www.w3.org/2000/svg">
<g clip-path="url(#clip0_1_452)">
<path d="M22.6678 15.1432C22.7145 14.7698 22.7495 14.3965 22.7495 13.9998C22.7495 13.6032 22.7145 13.2299 22.6678 12.8565L25.1295 10.9316C25.3511 10.7566 25.4095 10.4416 25.2695 10.1849L22.9362 6.1483C22.7962 5.89164 22.4812 5.79831 22.2245 5.89164L19.3195 7.05829C18.7129 6.59163 18.0596 6.20664 17.3479 5.91497L16.9046 2.82336C16.8696 2.54336 16.6246 2.33336 16.3329 2.33336H11.6663C11.3747 2.33336 11.1297 2.54336 11.0947 2.82336L10.6514 5.91497C9.9397 6.20664 9.28638 6.6033 8.67972 7.05829L5.77477 5.89164C5.50644 5.78664 5.20311 5.89164 5.06311 6.1483L2.72982 10.1849C2.57815 10.4416 2.64815 10.7566 2.86981 10.9316L5.33144 12.8565C5.28478 13.2299 5.24978 13.6149 5.24978 13.9998C5.24978 14.3848 5.28478 14.7698 5.33144 15.1432L2.86981 17.0681C2.64815 17.2431 2.58982 17.5581 2.72982 17.8148L5.06311 21.8514C5.20311 22.108 5.51811 22.2014 5.77477 22.108L8.67972 20.9414C9.28638 21.4081 9.9397 21.7931 10.6514 22.0847L11.0947 25.1763C11.1297 25.4563 11.3747 25.6663 11.6663 25.6663H16.3329C16.6246 25.6663 16.8696 25.4563 16.9046 25.1763L17.3479 22.0847C18.0596 21.7931 18.7129 21.3964 19.3195 20.9414L22.2245 22.108C22.4928 22.213 22.7962 22.108 22.9362 21.8514L25.2695 17.8148C25.4095 17.5581 25.3511 17.2431 25.1295 17.0681L22.6678 15.1432ZM13.9996 18.0831C11.748 18.0831 9.91637 16.2515 9.91637 13.9998C9.91637 11.7482 11.748 9.91658 13.9996 9.91658C16.2513 9.91658 18.0829 11.7482 18.0829 13.9998C18.0829 16.2515 16.2513 18.0831 13.9996 18.0831Z" fill="white"/>
</g>
<defs>
<clipPath id="clip0_1_452">
<rect width="27.7518" height="27.7518" fill="white" transform="translate(0.000492641) scale(1.00893)"/>
</clipPath>
</defs>
</svg>
