<svg width="19" height="19" viewBox="0 0 19 19" fill="none" xmlns="http://www.w3.org/2000/svg">
<mask id="mask0_1_1040" style="mask-type:luminance" maskUnits="userSpaceOnUse" x="0" y="0" width="19" height="19">
<path d="M18.5122 0H0V19H18.5122V0Z" fill="white"/>
</mask>
<g mask="url(#mask0_1_1040)">
<path fill-rule="evenodd" clip-rule="evenodd" d="M9.2561 0C4.14753 0 0 4.25682 0 9.5C0 14.7432 4.14753 19 9.2561 19C14.3647 19 18.5122 14.7432 18.5122 9.5C18.5122 4.25682 14.3647 0 9.2561 0ZM13.2333 10.6504C13.5306 10.6504 13.8157 10.5292 14.0259 10.3134C14.2361 10.0977 14.3542 9.80512 14.3542 9.5C14.3542 8.86465 13.8524 8.34961 13.2333 8.34961C11.2721 8.34961 7.24015 8.34961 5.27887 8.34961C4.98159 8.34961 4.6965 8.47081 4.48632 8.68657C4.2761 8.90228 4.15801 9.19489 4.15801 9.5C4.15801 10.1354 4.65983 10.6504 5.27887 10.6504H13.2333Z" fill="#E14040"/>
</g>
</svg>
