<svg width="33" height="33" viewBox="0 0 33 33" fill="none" xmlns="http://www.w3.org/2000/svg">
<path d="M27.5716 15.0967H5.43409C4.71267 15.0967 4.12784 15.6816 4.12784 16.403V16.5405C4.12784 17.2619 4.71267 17.8467 5.43409 17.8467H27.5716C28.293 17.8467 28.8778 17.2619 28.8778 16.5405V16.403C28.8778 15.6816 28.293 15.0967 27.5716 15.0967Z" fill="white"/>
<path d="M27.5716 21.9714H5.43409C4.71267 21.9714 4.12784 22.5562 4.12784 23.2776V23.4151C4.12784 24.1366 4.71267 24.7214 5.43409 24.7214H27.5716C28.293 24.7214 28.8778 24.1366 28.8778 23.4151V23.2776C28.8778 22.5562 28.293 21.9714 27.5716 21.9714Z" fill="white"/>
<path d="M27.5715 8.22151H5.43397C4.71255 8.22151 4.12772 8.80634 4.12772 9.52776V9.66526C4.12772 10.3867 4.71255 10.9715 5.43397 10.9715H27.5715C28.2929 10.9715 28.8777 10.3867 28.8777 9.66526V9.52776C28.8777 8.80634 28.2929 8.22151 27.5715 8.22151Z" fill="white"/>
</svg>
