<svg width="13" height="13" viewBox="0 0 13 13" fill="none" xmlns="http://www.w3.org/2000/svg">
<path d="M5.63646 0.0157829C2.52836 0.0157829 0 2.49371 0 5.53981C0 8.58592 2.52836 11.0638 5.63646 11.0638C6.58661 11.0638 7.52065 10.8429 8.30976 10.4167C8.37297 10.4913 8.44305 10.56 8.51911 10.6219L10.1295 12.2002C10.2782 12.3642 10.4596 12.4967 10.6624 12.5895C10.8652 12.6823 11.0853 12.7335 11.309 12.74C11.5328 12.7464 11.7555 12.708 11.9636 12.627C12.1716 12.5461 12.3606 12.4243 12.5189 12.2692C12.6772 12.114 12.8014 11.9288 12.884 11.7249C12.9666 11.521 13.0059 11.3027 12.9993 11.0834C12.9927 10.8641 12.9404 10.6485 12.8457 10.4497C12.751 10.2509 12.6159 10.0732 12.4485 9.92747L10.8381 8.34918C10.7597 8.27227 10.6733 8.20351 10.5805 8.144C11.0153 7.37064 11.289 6.47101 11.289 5.52403C11.289 2.47792 8.76068 0 5.65257 0L5.63646 0.0157829ZM5.63646 1.59408C7.87495 1.59408 9.66251 3.34598 9.66251 5.53981C9.66251 6.58149 9.27601 7.54425 8.59964 8.25448C8.58353 8.27026 8.56743 8.28605 8.55132 8.30183C8.47526 8.36378 8.40518 8.43246 8.34197 8.50701C7.63338 9.13833 6.66713 9.50133 5.62036 9.50133C3.38188 9.50133 1.59431 7.74943 1.59431 5.5556C1.59431 3.36177 3.38188 1.60986 5.62036 1.60986L5.63646 1.59408Z" fill="#959595"/>
</svg>
